<svg enable-background="new 0 0 512 512" height="512" viewBox="0 0 512 512" width="512" xmlns="http://www.w3.org/2000/svg"><path d="m321.779 244.5c0 14.031-10.35 25.53-23.46 25.53-12.88 0-23.46-11.499-23.46-25.53 0-14.03 10.351-25.529 23.46-25.529 13.111 0 23.46 11.499 23.46 25.529zm-107.409-25.529c-13.111 0-23.461 11.499-23.461 25.529 0 14.031 10.581 25.53 23.461 25.53 13.109 0 23.459-11.499 23.459-25.53.231-14.03-10.35-25.529-23.459-25.529zm242.879-145.59v412.618c-57.944-51.206-39.412-34.255-106.721-96.829l12.192 42.549h-260.821c-25.989 0-47.148-21.158-47.148-47.381v-310.957c0-26.221 21.159-47.38 47.148-47.38h308.198c25.992 0 47.152 21.159 47.152 47.38zm-65.551 218.038c0-74.059-33.119-134.089-33.119-134.089-33.119-24.839-64.63-24.149-64.63-24.149l-3.22 3.681c39.101 11.958 57.271 29.209 57.271 29.209-54.636-29.944-118.813-29.949-171.81-6.67-8.512 3.909-13.571 6.67-13.571 6.67s19.09-18.17 60.49-30.13l-2.299-2.761s-31.511-.689-64.631 24.149c0 0-33.119 60.03-33.119 134.089 0 0 19.32 33.35 70.148 34.96 0 0 8.511-10.349 15.41-19.09-29.21-8.74-40.248-27.138-40.248-27.138 3.383 2.365 8.962 5.438 9.43 5.748 38.82 21.743 93.965 28.864 143.52 8.051 8.049-2.989 17.02-7.36 26.449-13.57 0 0-11.5 18.861-41.63 27.37 6.901 8.739 15.181 18.629 15.181 18.629 50.829-1.609 70.378-34.959 70.378-34.959z"/></svg>