<?xml version="1.0" encoding="UTF-8"?>
<svg width="154px" height="29px" viewBox="0 0 154 29" version="1.1" xmlns="http://www.w3.org/2000/svg" xmlns:xlink="http://www.w3.org/1999/xlink">
    <!-- Generator: Sketch 54.1 (76490) - https://sketchapp.com -->
    <title>Group</title>
    <desc>Created with Sketch.</desc>
    <g id="Page-1" stroke="none" stroke-width="1" fill="none" fill-rule="evenodd">
        <g id="Group" transform="translate(-1.000000, -9.000000)" fill-rule="nonzero">
            <path d="M8.0625,29.8945312 L8.30859375,28.2304688 C8.30859375,27.0820255 7.08204352,26.5078125 4.62890625,26.5078125 C4.20702914,26.5078125 3.91406332,26.6054678 3.75,26.8007812 C3.58593668,26.9960947 3.50390625,27.3281227 3.50390625,27.796875 C3.50390625,28.2656273 3.57421805,28.9160115 3.71484375,29.7480469 C3.85546945,30.5800823 3.92578125,31.2167947 3.92578125,31.6582031 C3.92578125,32.0996116 3.75000176,32.3203125 3.3984375,32.3203125 C3.04687324,32.3203125 2.87109375,32.0878929 2.87109375,31.6230469 C2.87109375,31.1582008 2.9257807,30.4570359 3.03515625,29.5195312 C3.1445318,28.5820266 3.19921875,27.9453142 3.19921875,27.609375 C3.19921875,26.812496 3.05468895,26.4140625 2.765625,26.4140625 C2.57812406,26.4140625 2.484375,26.6367165 2.484375,27.0820312 L2.765625,29.0273438 C2.765625,29.4882836 2.59961104,29.71875 2.26757812,29.71875 C1.93554521,29.71875 1.76953125,29.4843773 1.76953125,29.015625 L2.0390625,26.859375 L2.02734375,24.9140625 L2.02734375,12.3398438 C2.02734375,11.8554663 1.87500152,11.4648452 1.5703125,11.1679688 L1.8046875,10.921875 C2.1250016,11.2343766 2.5156227,11.390625 2.9765625,11.390625 L12.65625,11.390625 C17.3281484,11.390625 20.2265569,12.9101411 21.3515625,15.9492188 C21.6640641,16.808598 21.8203125,17.7246045 21.8203125,18.6972656 C21.8203125,19.6699267 21.7597662,20.5058559 21.6386719,21.2050781 C21.5175775,21.9043004 21.3632822,22.5175755 21.1757812,23.0449219 C20.9882803,23.5722683 20.7246111,24.0390605 20.3847656,24.4453125 C20.0449202,24.8515645 19.7050798,25.193358 19.3652344,25.4707031 C19.0253889,25.7480483 18.5937526,25.984374 18.0703125,26.1796875 C17.5468724,26.375001 17.0625022,26.5253901 16.6171875,26.6308594 C16.1718728,26.7363287 15.6132846,26.816406 14.9414062,26.8710938 C13.8867135,26.9570317 12.6484446,27 11.2265625,27 L9.52734375,27 C8.87109047,27 8.54296875,27.4687453 8.54296875,28.40625 L8.73046875,29.90625 C8.73046875,30.2031265 8.62890727,30.3515625 8.42578125,30.3515625 C8.18359254,30.3515625 8.0625,30.1992203 8.0625,29.8945312 Z M14.7773438,21.8320312 C15.0195325,21.5195297 15.2070306,21.1152369 15.3398438,20.6191406 C15.4726569,20.1230444 15.5390625,19.5253941 15.5390625,18.8261719 C15.5390625,18.1269496 15.4218762,17.5429711 15.1875,17.0742188 C14.9531238,16.6054664 14.640627,16.2617198 14.25,16.0429688 C13.859373,15.8242177 13.4257836,15.6621099 12.9492188,15.5566406 C12.4726539,15.4511713 11.9726589,15.3925782 11.4492188,15.3808594 C10.9257786,15.3691406 10.4375023,15.359375 9.984375,15.3515625 C8.87499445,15.3359374 8.16406406,15.1718766 7.8515625,14.859375 L7.6171875,15.09375 C7.91406398,15.3828139 8.0625,15.773435 8.0625,16.265625 L8.0625,18.9609375 C8.0625,20.7578215 8.07031242,22.101558 8.0859375,22.9921875 L10.7460938,22.9921875 C12.0820379,22.9921875 13.0292941,22.8750012 13.5878906,22.640625 C14.1464872,22.4062488 14.5429676,22.1367203 14.7773438,21.8320312 Z M8.8125,34.0429688 C8.8125,34.4023455 8.68164193,34.5820312 8.41992188,34.5820312 C8.15820182,34.5820312 8.02734375,34.4355483 8.02734375,34.1425781 C8.02734375,33.8496079 8.0449217,33.5937511 8.08007812,33.375 C8.11523455,33.1562489 8.17578082,32.8769548 8.26171875,32.5371094 C8.34765668,32.1972639 8.39843742,31.9843754 8.4140625,31.8984375 C8.43750012,32.0000005 8.48046844,32.1699207 8.54296875,32.4082031 C8.60546906,32.6464856 8.65234359,32.8320306 8.68359375,32.9648438 C8.76953168,33.3320331 8.8125,33.6914045 8.8125,34.0429688 Z M43.78125,30.84375 L44.0390625,28.4179688 C44.0390625,27.4335888 43.6386759,26.6816432 42.8378906,26.1621094 C42.0371054,25.6425755 41.1953169,25.4121091 40.3125,25.4707031 C39.4296831,25.5292972 38.8125018,25.8281223 38.4609375,26.3671875 C38.2812491,26.6250013 38.1914062,26.9296857 38.1914062,27.28125 L38.1328125,30.421875 C38.1328125,30.8515646 38.1992181,31.4902301 38.3320312,32.3378906 C38.4648444,33.1855511 38.53125,33.8242166 38.53125,34.2539062 C38.53125,35.0117225 38.3164084,35.390625 37.8867188,35.390625 C37.4570291,35.390625 37.2421875,35.0234412 37.2421875,34.2890625 C37.2421875,33.8046851 37.3124993,33.1093795 37.453125,32.203125 C37.5937507,31.2968705 37.673828,30.6093773 37.6933594,30.140625 C37.7128907,29.6718727 37.7226562,28.6718827 37.7226562,27.140625 C37.7226562,26.734373 37.5976575,26.2656277 37.3476562,25.734375 C37.097655,25.2031223 36.7031277,24.4726609 36.1640625,23.5429688 C35.6249973,22.6132766 35.1835955,21.7929723 34.8398438,21.0820312 L34.4882812,20.8828125 C34.3007803,21.2265642 33.9687524,21.3984375 33.4921875,21.3984375 L32.5078125,21.4335938 C31.8359341,21.4335938 31.3320329,21.2695329 30.9960938,20.9414062 L30.75,21.1757812 C30.7734376,21.4648452 30.7851562,22.0820265 30.7851562,23.0273438 L30.7734375,25.8984375 C30.7734375,26.7578168 30.7890623,27.390623 30.8203125,27.796875 L31.0429688,29.5195312 C31.0429688,29.8398454 30.9335948,30 30.7148438,30 C30.4960927,30 30.3867188,29.851564 30.3867188,29.5546875 L30.5742188,28.1015625 C30.5742188,27.7499982 30.4707042,27.4707042 30.2636719,27.2636719 C30.0566396,27.0566396 29.787111,26.953125 29.4550781,26.953125 C29.1230452,26.953125 28.8300794,27.0996079 28.5761719,27.3925781 C28.3222644,27.6855483 28.1953125,28.0664039 28.1953125,28.5351562 C28.1953125,29.0039086 28.2812491,29.6386679 28.453125,30.4394531 C28.6250009,31.2402384 28.7109375,31.8164045 28.7109375,32.1679688 C28.7109375,32.9023474 28.4492214,33.2695312 27.9257812,33.2695312 C27.4023411,33.2695312 27.140625,32.9101598 27.140625,32.1914062 C27.140625,31.8554671 27.2167961,31.2695354 27.3691406,30.4335938 C27.5214851,29.5976521 27.5976562,28.9335962 27.5976562,28.4414062 C27.5976562,27.9492163 27.4843761,27.5449235 27.2578125,27.2285156 C27.0312489,26.9121078 26.7734389,26.7539062 26.484375,26.7539062 C26.1953111,26.7539062 25.9492198,26.8535146 25.7460938,27.0527344 C25.5429677,27.2519541 25.4414062,27.4999985 25.4414062,27.796875 L25.7578125,30.5742188 C25.7578125,31.0507836 25.582033,31.2890625 25.2304688,31.2890625 C24.8789045,31.2890625 24.703125,31.0468774 24.703125,30.5625 C24.703125,30.2812486 24.777343,29.7910191 24.9257812,29.0917969 C25.0742195,28.3925746 25.1445313,27.8476582 25.1367188,27.4570312 C25.1289062,27.0664043 25.125,22.0117673 25.125,12.2929688 C25.125,11.8085913 24.976564,11.4218764 24.6796875,11.1328125 L24.9140625,10.8984375 C25.2187515,11.195314 25.6054664,11.34375 26.0742188,11.34375 L36.5742188,11.34375 C38.214852,11.34375 39.3183565,11.3925776 39.8847656,11.4902344 C40.4511747,11.5878911 40.9472635,11.6914057 41.3730469,11.8007812 C41.7988303,11.9101568 42.1582017,12.0449211 42.4511719,12.2050781 C42.7441421,12.3652352 43.0410141,12.5644519 43.3417969,12.8027344 C43.6425796,13.0410168 43.8828116,13.3124985 44.0625,13.6171875 C44.4765646,14.3125035 44.6835938,15.0507773 44.6835938,15.8320312 C44.6835938,16.6132852 44.6230475,17.2519506 44.5019531,17.7480469 C44.3808588,18.2441431 44.1796889,18.7109353 43.8984375,19.1484375 C43.2890595,20.0937547 42.2187577,20.5664062 40.6875,20.5664062 L40.59375,20.8359375 C41.08594,21.031251 41.4140617,21.3007795 41.578125,21.6445312 C42.2656284,23.1445388 42.7734359,24.0957011 43.1015625,24.4980469 C43.4296891,24.9003926 43.7343736,25.222655 44.015625,25.4648438 C44.2968764,25.7070325 44.6992161,25.9531237 45.2226562,26.203125 C45.7460964,26.4531263 46.0624995,26.615234 46.171875,26.6894531 C46.2812505,26.7636722 46.3359375,26.8242185 46.3359375,26.8710938 C46.3359375,27.6523477 46.4414052,28.6562439 46.6523438,29.8828125 C46.8632823,31.1093811 46.96875,31.8984357 46.96875,32.25 C46.96875,32.6015643 46.9550783,32.855468 46.9277344,33.0117188 C46.9003905,33.1679695 46.8398442,33.3222649 46.7460938,33.4746094 C46.6523433,33.6269539 46.5156259,33.703125 46.3359375,33.703125 C46.1562491,33.703125 46.0214848,33.57422 45.9316406,33.3164062 C45.8417964,33.0585925 45.796875,32.7421894 45.796875,32.3671875 C45.796875,31.9921856 45.8476557,31.3222704 45.9492188,30.3574219 C46.0507818,29.3925733 46.1015625,28.664065 46.1015625,28.171875 C46.1015625,27.1953076 45.7851594,26.7070312 45.1523438,26.7070312 C44.8398422,26.7070312 44.6074226,26.7617182 44.4550781,26.8710938 C44.3027336,26.9804693 44.2265625,27.2050764 44.2265625,27.5449219 C44.2265625,27.8847673 44.2968743,28.4257775 44.4375,29.1679688 C44.5781257,29.91016 44.6484375,30.4707012 44.6484375,30.8496094 C44.6484375,31.2285175 44.5039077,31.4179688 44.2148438,31.4179688 C43.9257798,31.4179688 43.78125,31.2265644 43.78125,30.84375 Z M35.9765625,15.234375 L33.2109375,15.3164062 C32.0781193,15.3164062 31.3398455,15.1484392 30.9960938,14.8125 L30.75,15.0351562 C31.0625016,15.3398453 31.21875,15.7304664 31.21875,16.2070312 L31.21875,16.9921875 C31.21875,17.4609398 31.0625016,17.8515609 30.75,18.1640625 L30.9960938,18.3984375 C31.3320329,18.0546858 32.0273385,17.8828125 33.0820312,17.8828125 L36.046875,17.9882812 C36.8359414,17.9882812 37.4472635,17.8847667 37.8808594,17.6777344 C38.3144553,17.4707021 38.53125,17.0898465 38.53125,16.5351562 C38.53125,16.183592 38.4101575,15.9082041 38.1679688,15.7089844 C37.92578,15.5097646 37.6328142,15.3808597 37.2890625,15.3222656 C36.9453108,15.2636716 36.5078152,15.234375 35.9765625,15.234375 Z M48.2226562,27.75 L48.2578125,29.6132812 C48.2578125,29.9882831 48.1992193,30.2714834 48.0820312,30.4628906 C47.9648432,30.6542978 47.8242196,30.75 47.6601562,30.75 C47.3320296,30.75 47.1679688,30.4335969 47.1679688,29.8007812 C47.1679688,29.1679656 47.246093,28.4668007 47.4023438,27.6972656 C47.5585945,26.9277305 47.6953119,26.3984389 47.8125,26.109375 L53.4375,12.2695312 C53.5156254,12.0664052 53.5546875,11.8671885 53.5546875,11.671875 C53.5546875,11.4765615 53.4882819,11.2851572 53.3554688,11.0976562 L53.6835938,10.8867188 C53.9101574,11.2226579 54.2617164,11.390625 54.7382812,11.390625 L60.1289062,11.390625 C60.5976586,11.390625 60.9453114,11.2226579 61.171875,10.8867188 L61.5117188,11.0976562 C61.3789056,11.2851572 61.3125,11.4648429 61.3125,11.6367188 C61.3125,11.8085946 61.3593745,12.0156238 61.453125,12.2578125 L67.2421875,26.1210938 C67.4218759,26.5585959 67.6992169,26.9023425 68.0742188,27.1523438 L67.9335938,27.375 C67.5507793,27.1249987 67.1250023,27 66.65625,27 L64.359375,27 C64.3750001,27.1718759 64.3828125,27.2929684 64.3828125,27.3632812 C64.3828125,27.621095 64.2773448,27.75 64.0664062,27.75 C63.9726558,27.75 63.8886722,27.712891 63.8144531,27.6386719 C63.740234,27.5644528 63.703125,27.4589851 63.703125,27.3222656 C63.703125,27.1855462 63.7109374,27.0781254 63.7265625,27 L62.3085938,27 C61.964842,27 61.742188,27.1874981 61.640625,27.5625 C61.5156244,28.0234398 61.453125,28.5527314 61.453125,29.1503906 C61.453125,29.7480499 61.4921871,30.2929663 61.5703125,30.7851562 C61.6484379,31.2773462 61.6875,31.6152335 61.6875,31.7988281 C61.6875,31.9824228 61.6425786,32.1308588 61.5527344,32.2441406 C61.4628902,32.3574224 61.3515632,32.4140625 61.21875,32.4140625 C61.0859368,32.4140625 60.9726567,32.3593755 60.8789062,32.25 C60.7851558,32.1406245 60.7382812,31.9882822 60.7382812,31.7929688 C60.7382812,31.5976553 60.7871089,31.2187528 60.8847656,30.65625 C60.9824224,30.0937472 61.03125,29.6718764 61.03125,29.390625 L61.03125,26.0976562 C60.9531246,25.8867177 60.9140625,25.6914071 60.9140625,25.5117188 C60.9140625,25.3320304 60.9843743,25.140626 61.125,24.9375 L60.8203125,24.7148438 C60.5859363,25.0507829 60.2343773,25.21875 59.765625,25.21875 L54.9492188,25.21875 C54.4804664,25.21875 54.1289074,25.0546891 53.8945312,24.7265625 L53.5898438,24.9375 C53.738282,25.1484386 53.8125,25.3437491 53.8125,25.5234375 C53.8125,25.7031259 53.7851565,25.8945302 53.7304688,26.0976562 L53.7304688,26.109375 C53.6601559,26.3750013 53.625,26.5781243 53.625,26.71875 C53.625,26.8593757 53.7031242,27.0429676 53.859375,27.2695312 L53.5546875,27.4921875 C53.3203113,27.1640609 52.9687523,27 52.5,27 L48.2578125,27 C48.2343749,27.1484382 48.2226562,27.3984357 48.2226562,27.75 Z M56.15625,21.9726562 L58.3945312,21.9726562 C58.8632836,21.9726562 59.2851544,22.097655 59.6601562,22.3476562 L59.8125,22.125 C59.4453107,21.8749987 59.1796883,21.527346 59.015625,21.0820312 L57.5273438,17.2734375 C57.3554679,16.8281228 57.265625,16.3750023 57.2578125,15.9140625 L57.1054688,15.9140625 C57.0898437,16.4296901 57.0117195,16.8828105 56.8710938,17.2734375 L55.5234375,21.0703125 C55.3593742,21.5234398 55.097658,21.8749987 54.7382812,22.125 L54.890625,22.359375 C55.2578143,22.1015612 55.6796851,21.9726562 56.15625,21.9726562 Z M63.7617188,30.8789062 C63.7617188,30.3398411 63.8632802,29.6640666 64.0664062,28.8515625 C64.2929699,29.7890672 64.40625,30.3984361 64.40625,30.6796875 C64.40625,31.0937521 64.2988292,31.3007812 64.0839844,31.3007812 C63.8691396,31.3007812 63.7617188,31.1601577 63.7617188,30.8789062 Z M75.4101562,18.7265625 C75.4101562,21.5703267 76.7851425,22.9921875 79.5351562,22.9921875 C82.28517,22.9921875 83.6601562,21.5703267 83.6601562,18.7265625 C83.6601562,17.3671807 83.2929724,16.3496128 82.5585938,15.6738281 C81.8242151,14.9980435 80.8203189,14.6601562 79.546875,14.6601562 C78.2734311,14.6601562 77.2656287,14.9980435 76.5234375,15.6738281 C75.7812463,16.3496128 75.4101562,17.3671807 75.4101562,18.7265625 Z M86.0976562,33.796875 L86.2734375,31.1015625 C86.2734375,29.7968685 85.9218785,28.9023462 85.21875,28.4179688 L83.5078125,27.2578125 C83.1640608,27.0156238 82.9921875,26.7734387 82.9921875,26.53125 C82.9921875,26.4453121 82.9999999,26.3750003 83.015625,26.3203125 L82.5820312,26.2148438 C82.535156,26.4335948 82.4472663,26.5878902 82.3183594,26.6777344 C82.1894525,26.7675786 81.8574246,26.8515621 81.3222656,26.9296875 C80.7871067,27.0078129 80.1796909,27.046875 79.5,27.046875 C78.8203091,27.046875 78.1640657,27.0195315 77.53125,26.9648438 C76.8984343,26.910156 76.2148474,26.8046883 75.4804688,26.6484375 C74.7460901,26.4921867 74.0761749,26.2890638 73.4707031,26.0390625 C72.8652313,25.7890612 72.2734404,25.4492209 71.6953125,25.0195312 C71.1171846,24.5898416 70.6289082,24.0937528 70.2304688,23.53125 C69.3554644,22.3046814 68.9179688,20.7226659 68.9179688,18.7851562 C68.9179688,15.4179519 70.3359233,13.0781316 73.171875,11.765625 C74.8593834,10.9843711 76.980456,10.59375 79.5351562,10.59375 C84.9961211,10.59375 88.3515563,12.2812331 89.6015625,15.65625 C89.9453142,16.5781296 90.1171875,17.6210879 90.1171875,18.7851562 C90.1171875,20.941417 89.5585993,22.6249939 88.4414062,23.8359375 C88.1054671,24.1953143 87.734377,24.3945311 87.328125,24.4335938 L87.3398438,24.7382812 C87.386719,24.7304687 87.5253895,24.7265625 87.7558594,24.7265625 C87.9863293,24.7265625 88.2617171,24.8359364 88.5820312,25.0546875 L90.0820312,26.0625 C90.425783,26.2968762 90.796873,26.4179687 91.1953125,26.4257812 L91.3242188,26.4140625 L91.3476562,26.7070312 C90.9101541,26.7382814 90.5117205,26.9101547 90.1523438,27.2226562 L87.984375,29.0742188 C87.984375,29.3164075 88.0312495,29.6757789 88.125,30.1523438 C88.2187505,30.6289086 88.265625,30.9843738 88.265625,31.21875 C88.265625,31.6953149 88.0957048,31.9335938 87.7558594,31.9335938 C87.4160139,31.9335938 87.2460938,31.6992211 87.2460938,31.2304688 C87.2460938,31.0117177 87.2949214,30.6875021 87.3925781,30.2578125 C87.4902349,29.8281229 87.5390625,29.4511735 87.5390625,29.1269531 C87.5390625,28.8027328 87.4414072,28.640625 87.2460938,28.640625 C87.0976555,28.640625 86.9902347,28.751952 86.9238281,28.9746094 C86.8574215,29.1972667 86.8242188,29.4765608 86.8242188,29.8125 C86.8242188,30.1484392 86.8789057,30.7871047 86.9882812,31.7285156 C87.0976568,32.6699266 87.1523438,33.3749977 87.1523438,33.84375 C87.1523438,34.3125023 86.9882829,34.546875 86.6601562,34.546875 C86.2851544,34.546875 86.0976562,34.2968775 86.0976562,33.796875 Z M88.1601562,36.7851562 C88.1601562,37.144533 88.0273451,37.3242188 87.7617188,37.3242188 C87.4960924,37.3242188 87.3632812,37.1328144 87.3632812,36.75 C87.3632812,36.3671856 87.4238275,35.9453148 87.5449219,35.484375 C87.6660162,35.0234352 87.7382811,34.742188 87.7617188,34.640625 C87.7851564,34.7500005 87.8359371,34.9687484 87.9140625,35.296875 C88.0781258,35.9296907 88.1601562,36.4257795 88.1601562,36.7851562 Z M111.949219,13.7578125 L112.054688,19.7460938 C112.054688,21.8320417 111.796878,23.3593702 111.28125,24.328125 C110.796873,25.2500046 110.105473,25.9414039 109.207031,26.4023438 C108.183589,26.9335964 106.824227,27.277343 105.128906,27.4335938 L105.128906,29.625 L105.246094,30.8320312 C105.246094,31.0976576 105.171876,31.2304688 105.023438,31.2304688 C104.874999,31.2304688 104.800781,30.9726588 104.800781,30.4570312 L104.871094,28.546875 C104.871094,27.7031208 104.609378,27.28125 104.085938,27.28125 C103.679685,27.28125 103.476562,27.6132779 103.476562,28.2773438 L103.535156,29.296875 C103.535156,29.5312512 103.583984,29.8730446 103.681641,30.3222656 C103.779297,30.7714866 103.828125,31.0898428 103.828125,31.2773438 C103.828125,31.4648447 103.789063,31.6210931 103.710938,31.7460938 C103.632812,31.8710944 103.519532,31.9335938 103.371094,31.9335938 C103.222656,31.9335938 103.111328,31.8691413 103.037109,31.7402344 C102.96289,31.6113275 102.925781,31.4570321 102.925781,31.2773438 C102.925781,31.0976554 102.978515,30.8027364 103.083984,30.3925781 C103.189454,29.9824198 103.242188,29.7187506 103.242188,29.6015625 L103.242188,29.2441406 C103.242188,29.1230463 103.238281,29.0000006 103.230469,28.875 C103.222656,28.7499994 103.203125,28.5937509 103.171875,28.40625 C103.109375,28.015623 102.921877,27.8203125 102.609375,27.8203125 C102.031247,27.8203125 101.742188,28.3906193 101.742188,29.53125 L101.742188,30.0703125 C101.742188,30.3593764 101.812499,30.7812472 101.953125,31.3359375 C102.093751,31.8906278 102.164062,32.2890613 102.164062,32.53125 C102.164062,33.1328155 101.968752,33.4335938 101.578125,33.4335938 C101.382812,33.4335938 101.228516,33.3515633 101.115234,33.1875 C101.001953,33.0234367 100.945312,32.8125013 100.945312,32.5546875 C100.945312,32.2968737 101.009765,31.8593781 101.138672,31.2421875 C101.267579,30.6249969 101.332031,30.1562516 101.332031,29.8359375 L101.332031,27.5039062 C99.1132702,27.4023432 97.4492243,27.0781277 96.3398438,26.53125 C94.4023341,25.5937453 93.4062503,23.8125131 93.3515625,21.1875 C93.3359374,20.4609339 93.328125,19.3789134 93.328125,17.9414062 L93.3515625,12.5273438 C93.3515625,12.0664039 93.1992203,11.6796891 92.8945312,11.3671875 L93.140625,11.1328125 C93.4296889,11.429689 93.8164038,11.578125 94.3007812,11.578125 L98.4492188,11.578125 C98.9257836,11.578125 99.3124985,11.429689 99.609375,11.1328125 L99.8554688,11.3671875 C99.5585923,11.6718765 99.4101562,12.0585914 99.4101562,12.5273438 L99.4335938,18.5507812 C99.4335938,19.7148496 99.4648434,20.4531234 99.5273438,20.765625 C99.5898441,21.0781266 99.6582028,21.3652331 99.7324219,21.6269531 C99.806641,21.8886732 99.8964838,22.0976555 100.001953,22.2539062 C100.107422,22.410157 100.242187,22.576171 100.40625,22.7519531 C100.570313,22.9277353 100.757811,23.0624995 100.96875,23.15625 C101.46094,23.3750011 101.943357,23.484375 102.416016,23.484375 C102.888674,23.484375 103.255858,23.4628908 103.517578,23.4199219 C103.779298,23.3769529 104.009765,23.3066411 104.208984,23.2089844 C104.408204,23.1113276 104.58789,23.0058599 104.748047,22.8925781 C104.908204,22.7792963 105.044921,22.6347665 105.158203,22.4589844 C105.271485,22.2832022 105.371093,22.1152352 105.457031,21.9550781 C105.542969,21.7949211 105.611328,21.5937512 105.662109,21.3515625 C105.712891,21.1093738 105.753906,20.8964853 105.785156,20.7128906 C105.816406,20.529296 105.839844,20.2968764 105.855469,20.015625 C105.878906,19.5859354 105.890625,19.097659 105.890625,18.5507812 L105.914062,12.5273438 C105.914062,12.0507789 105.769533,11.664064 105.480469,11.3671875 L105.703125,11.1328125 C106.000001,11.429689 106.390623,11.578125 106.875,11.578125 L111.023438,11.578125 C111.515627,11.578125 111.906249,11.429689 112.195312,11.1328125 L112.429688,11.3671875 C112.109373,11.6953141 111.949219,12.4921812 111.949219,13.7578125 Z M105.410156,33.5039062 C105.410156,33.8710956 105.281251,34.0546875 105.023438,34.0546875 C104.765624,34.0546875 104.636719,33.8632832 104.636719,33.4804688 C104.636719,33.1054669 104.693359,32.7871107 104.806641,32.5253906 C104.919922,32.2636706 104.988281,32.1328125 105.011719,32.1328125 C105.035156,32.1328125 105.078125,32.2031243 105.140625,32.34375 C105.320313,32.750002 105.410156,33.1367169 105.410156,33.5039062 Z M132.199219,23.90625 L132.152344,25.4296875 C132.152344,26.2812543 132.324217,26.8789045 132.667969,27.2226562 L132.421875,27.4570312 C132.124999,27.1523422 131.734377,27 131.25,27 L127.839844,27 C127.847656,27.1093755 127.851562,27.2539054 127.851562,27.4335938 C127.851562,27.8710959 127.742189,28.0898438 127.523438,28.0898438 C127.304686,28.0898438 127.195312,27.8437525 127.195312,27.3515625 C127.195312,27.2031243 127.199219,27.0859379 127.207031,27 L116.71875,27 C116.531249,27 116.369141,27.3378872 116.232422,28.0136719 C116.095702,28.6894565 116.027344,29.2304667 116.027344,29.6367188 C116.027344,30.0429708 116.121093,30.7714791 116.308594,31.8222656 C116.496095,32.8730521 116.589844,33.6933564 116.589844,34.2832031 C116.589844,34.8730498 116.359377,35.1679688 115.898438,35.1679688 C115.398435,35.1679688 115.148438,34.8632843 115.148438,34.2539062 C115.148438,33.6445282 115.253905,32.7988335 115.464844,31.7167969 C115.675782,30.6347602 115.78125,29.8203152 115.78125,29.2734375 L115.769531,12.3398438 C115.769531,11.8632789 115.613283,11.4726578 115.300781,11.1679688 L115.546875,10.921875 C115.867189,11.2343766 116.25781,11.390625 116.71875,11.390625 L120.914062,11.390625 C121.390627,11.390625 121.781248,11.2343766 122.085938,10.921875 L122.332031,11.1679688 C122.01953,11.4726578 121.863281,11.8632789 121.863281,12.3398438 L121.863281,22.0078125 C121.863281,22.4765648 121.710939,22.8632797 121.40625,23.1679688 L121.652344,23.4140625 C122.050783,23.015623 122.921868,22.8164062 124.265625,22.8164062 L129.820312,23.0976562 C131.156257,23.0976562 132.023436,22.8984395 132.421875,22.5 L132.667969,22.734375 C132.355467,23.039064 132.199219,23.4296851 132.199219,23.90625 Z M127.921875,32.203125 C127.921875,32.5234391 127.789064,32.6835938 127.523438,32.6835938 C127.257811,32.6835938 127.125,32.4921894 127.125,32.109375 C127.125,31.7734358 127.189452,31.3613306 127.318359,30.8730469 C127.447266,30.3847632 127.515625,30.1210939 127.523438,30.0820312 C127.539063,30.1601566 127.578125,30.3203113 127.640625,30.5625 C127.703125,30.8046887 127.75,30.9921868 127.78125,31.125 C127.875,31.5234395 127.921875,31.8828109 127.921875,32.203125 Z M134.308594,27.75 L134.34375,29.6132812 C134.34375,29.9882831 134.285157,30.2714834 134.167969,30.4628906 C134.050781,30.6542978 133.910157,30.75 133.746094,30.75 C133.417967,30.75 133.253906,30.4335969 133.253906,29.8007812 C133.253906,29.1679656 133.33203,28.4668007 133.488281,27.6972656 C133.644532,26.9277305 133.781249,26.3984389 133.898438,26.109375 L139.523438,12.2695312 C139.601563,12.0664052 139.640625,11.8671885 139.640625,11.671875 C139.640625,11.4765615 139.574219,11.2851572 139.441406,11.0976562 L139.769531,10.8867188 C139.996095,11.2226579 140.347654,11.390625 140.824219,11.390625 L146.214844,11.390625 C146.683596,11.390625 147.031249,11.2226579 147.257812,10.8867188 L147.597656,11.0976562 C147.464843,11.2851572 147.398438,11.4648429 147.398438,11.6367188 C147.398438,11.8085946 147.445312,12.0156238 147.539062,12.2578125 L153.328125,26.1210938 C153.507813,26.5585959 153.785154,26.9023425 154.160156,27.1523438 L154.019531,27.375 C153.636717,27.1249987 153.21094,27 152.742188,27 L150.445312,27 C150.460938,27.1718759 150.46875,27.2929684 150.46875,27.3632812 C150.46875,27.621095 150.363282,27.75 150.152344,27.75 C150.058593,27.75 149.97461,27.712891 149.900391,27.6386719 C149.826172,27.5644528 149.789062,27.4589851 149.789062,27.3222656 C149.789062,27.1855462 149.796875,27.0781254 149.8125,27 L148.394531,27 C148.05078,27 147.828126,27.1874981 147.726562,27.5625 C147.601562,28.0234398 147.539062,28.5527314 147.539062,29.1503906 C147.539062,29.7480499 147.578125,30.2929663 147.65625,30.7851562 C147.734375,31.2773462 147.773438,31.6152335 147.773438,31.7988281 C147.773438,31.9824228 147.728516,32.1308588 147.638672,32.2441406 C147.548828,32.3574224 147.437501,32.4140625 147.304688,32.4140625 C147.171874,32.4140625 147.058594,32.3593755 146.964844,32.25 C146.871093,32.1406245 146.824219,31.9882822 146.824219,31.7929688 C146.824219,31.5976553 146.873046,31.2187528 146.970703,30.65625 C147.06836,30.0937472 147.117188,29.6718764 147.117188,29.390625 L147.117188,26.0976562 C147.039062,25.8867177 147,25.6914071 147,25.5117188 C147,25.3320304 147.070312,25.140626 147.210938,24.9375 L146.90625,24.7148438 C146.671874,25.0507829 146.320315,25.21875 145.851562,25.21875 L141.035156,25.21875 C140.566404,25.21875 140.214845,25.0546891 139.980469,24.7265625 L139.675781,24.9375 C139.824219,25.1484386 139.898438,25.3437491 139.898438,25.5234375 C139.898438,25.7031259 139.871094,25.8945302 139.816406,26.0976562 L139.816406,26.109375 C139.746093,26.3750013 139.710938,26.5781243 139.710938,26.71875 C139.710938,26.8593757 139.789062,27.0429676 139.945312,27.2695312 L139.640625,27.4921875 C139.406249,27.1640609 139.05469,27 138.585938,27 L134.34375,27 C134.320312,27.1484382 134.308594,27.3984357 134.308594,27.75 Z M142.242188,21.9726562 L144.480469,21.9726562 C144.949221,21.9726562 145.371092,22.097655 145.746094,22.3476562 L145.898438,22.125 C145.531248,21.8749987 145.265626,21.527346 145.101562,21.0820312 L143.613281,17.2734375 C143.441405,16.8281228 143.351563,16.3750023 143.34375,15.9140625 L143.191406,15.9140625 C143.175781,16.4296901 143.097657,16.8828105 142.957031,17.2734375 L141.609375,21.0703125 C141.445312,21.5234398 141.183596,21.8749987 140.824219,22.125 L140.976562,22.359375 C141.343752,22.1015612 141.765623,21.9726562 142.242188,21.9726562 Z M149.847656,30.8789062 C149.847656,30.3398411 149.949218,29.6640666 150.152344,28.8515625 C150.378907,29.7890672 150.492188,30.3984361 150.492188,30.6796875 C150.492188,31.0937521 150.384767,31.3007812 150.169922,31.3007812 C149.955077,31.3007812 149.847656,31.1601577 149.847656,30.8789062 Z" id="Draqula" fill="#F56565"></path>
            <path d="M8.0625,28.8945312 L8.30859375,27.2304688 C8.30859375,26.0820255 7.08204352,25.5078125 4.62890625,25.5078125 C4.20702914,25.5078125 3.91406332,25.6054678 3.75,25.8007812 C3.58593668,25.9960947 3.50390625,26.3281227 3.50390625,26.796875 C3.50390625,27.2656273 3.57421805,27.9160115 3.71484375,28.7480469 C3.85546945,29.5800823 3.92578125,30.2167947 3.92578125,30.6582031 C3.92578125,31.0996116 3.75000176,31.3203125 3.3984375,31.3203125 C3.04687324,31.3203125 2.87109375,31.0878929 2.87109375,30.6230469 C2.87109375,30.1582008 2.9257807,29.4570359 3.03515625,28.5195312 C3.1445318,27.5820266 3.19921875,26.9453142 3.19921875,26.609375 C3.19921875,25.812496 3.05468895,25.4140625 2.765625,25.4140625 C2.57812406,25.4140625 2.484375,25.6367165 2.484375,26.0820312 L2.765625,28.0273438 C2.765625,28.4882836 2.59961104,28.71875 2.26757812,28.71875 C1.93554521,28.71875 1.76953125,28.4843773 1.76953125,28.015625 L2.0390625,25.859375 L2.02734375,23.9140625 L2.02734375,11.3398438 C2.02734375,10.8554663 1.87500152,10.4648452 1.5703125,10.1679688 L1.8046875,9.921875 C2.1250016,10.2343766 2.5156227,10.390625 2.9765625,10.390625 L12.65625,10.390625 C17.3281484,10.390625 20.2265569,11.9101411 21.3515625,14.9492188 C21.6640641,15.808598 21.8203125,16.7246045 21.8203125,17.6972656 C21.8203125,18.6699267 21.7597662,19.5058559 21.6386719,20.2050781 C21.5175775,20.9043004 21.3632822,21.5175755 21.1757812,22.0449219 C20.9882803,22.5722683 20.7246111,23.0390605 20.3847656,23.4453125 C20.0449202,23.8515645 19.7050798,24.193358 19.3652344,24.4707031 C19.0253889,24.7480483 18.5937526,24.984374 18.0703125,25.1796875 C17.5468724,25.375001 17.0625022,25.5253901 16.6171875,25.6308594 C16.1718728,25.7363287 15.6132846,25.816406 14.9414062,25.8710938 C13.8867135,25.9570317 12.6484446,26 11.2265625,26 L9.52734375,26 C8.87109047,26 8.54296875,26.4687453 8.54296875,27.40625 L8.73046875,28.90625 C8.73046875,29.2031265 8.62890727,29.3515625 8.42578125,29.3515625 C8.18359254,29.3515625 8.0625,29.1992203 8.0625,28.8945312 Z M14.7773438,20.8320312 C15.0195325,20.5195297 15.2070306,20.1152369 15.3398438,19.6191406 C15.4726569,19.1230444 15.5390625,18.5253941 15.5390625,17.8261719 C15.5390625,17.1269496 15.4218762,16.5429711 15.1875,16.0742188 C14.9531238,15.6054664 14.640627,15.2617198 14.25,15.0429688 C13.859373,14.8242177 13.4257836,14.6621099 12.9492188,14.5566406 C12.4726539,14.4511713 11.9726589,14.3925782 11.4492188,14.3808594 C10.9257786,14.3691406 10.4375023,14.359375 9.984375,14.3515625 C8.87499445,14.3359374 8.16406406,14.1718766 7.8515625,13.859375 L7.6171875,14.09375 C7.91406398,14.3828139 8.0625,14.773435 8.0625,15.265625 L8.0625,17.9609375 C8.0625,19.7578215 8.07031242,21.101558 8.0859375,21.9921875 L10.7460938,21.9921875 C12.0820379,21.9921875 13.0292941,21.8750012 13.5878906,21.640625 C14.1464872,21.4062488 14.5429676,21.1367203 14.7773438,20.8320312 Z M8.8125,33.0429688 C8.8125,33.4023455 8.68164193,33.5820312 8.41992188,33.5820312 C8.15820182,33.5820312 8.02734375,33.4355483 8.02734375,33.1425781 C8.02734375,32.8496079 8.0449217,32.5937511 8.08007812,32.375 C8.11523455,32.1562489 8.17578082,31.8769548 8.26171875,31.5371094 C8.34765668,31.1972639 8.39843742,30.9843754 8.4140625,30.8984375 C8.43750012,31.0000005 8.48046844,31.1699207 8.54296875,31.4082031 C8.60546906,31.6464856 8.65234359,31.8320306 8.68359375,31.9648438 C8.76953168,32.3320331 8.8125,32.6914045 8.8125,33.0429688 Z M43.78125,29.84375 L44.0390625,27.4179688 C44.0390625,26.4335888 43.6386759,25.6816432 42.8378906,25.1621094 C42.0371054,24.6425755 41.1953169,24.4121091 40.3125,24.4707031 C39.4296831,24.5292972 38.8125018,24.8281223 38.4609375,25.3671875 C38.2812491,25.6250013 38.1914062,25.9296857 38.1914062,26.28125 L38.1328125,29.421875 C38.1328125,29.8515646 38.1992181,30.4902301 38.3320312,31.3378906 C38.4648444,32.1855511 38.53125,32.8242166 38.53125,33.2539062 C38.53125,34.0117225 38.3164084,34.390625 37.8867188,34.390625 C37.4570291,34.390625 37.2421875,34.0234412 37.2421875,33.2890625 C37.2421875,32.8046851 37.3124993,32.1093795 37.453125,31.203125 C37.5937507,30.2968705 37.673828,29.6093773 37.6933594,29.140625 C37.7128907,28.6718727 37.7226562,27.6718827 37.7226562,26.140625 C37.7226562,25.734373 37.5976575,25.2656277 37.3476562,24.734375 C37.097655,24.2031223 36.7031277,23.4726609 36.1640625,22.5429688 C35.6249973,21.6132766 35.1835955,20.7929723 34.8398438,20.0820312 L34.4882812,19.8828125 C34.3007803,20.2265642 33.9687524,20.3984375 33.4921875,20.3984375 L32.5078125,20.4335938 C31.8359341,20.4335938 31.3320329,20.2695329 30.9960938,19.9414062 L30.75,20.1757812 C30.7734376,20.4648452 30.7851562,21.0820265 30.7851562,22.0273438 L30.7734375,24.8984375 C30.7734375,25.7578168 30.7890623,26.390623 30.8203125,26.796875 L31.0429688,28.5195312 C31.0429688,28.8398454 30.9335948,29 30.7148438,29 C30.4960927,29 30.3867188,28.851564 30.3867188,28.5546875 L30.5742188,27.1015625 C30.5742188,26.7499982 30.4707042,26.4707042 30.2636719,26.2636719 C30.0566396,26.0566396 29.787111,25.953125 29.4550781,25.953125 C29.1230452,25.953125 28.8300794,26.0996079 28.5761719,26.3925781 C28.3222644,26.6855483 28.1953125,27.0664039 28.1953125,27.5351562 C28.1953125,28.0039086 28.2812491,28.6386679 28.453125,29.4394531 C28.6250009,30.2402384 28.7109375,30.8164045 28.7109375,31.1679688 C28.7109375,31.9023474 28.4492214,32.2695312 27.9257812,32.2695312 C27.4023411,32.2695312 27.140625,31.9101598 27.140625,31.1914062 C27.140625,30.8554671 27.2167961,30.2695354 27.3691406,29.4335938 C27.5214851,28.5976521 27.5976562,27.9335962 27.5976562,27.4414062 C27.5976562,26.9492163 27.4843761,26.5449235 27.2578125,26.2285156 C27.0312489,25.9121078 26.7734389,25.7539062 26.484375,25.7539062 C26.1953111,25.7539062 25.9492198,25.8535146 25.7460938,26.0527344 C25.5429677,26.2519541 25.4414062,26.4999985 25.4414062,26.796875 L25.7578125,29.5742188 C25.7578125,30.0507836 25.582033,30.2890625 25.2304688,30.2890625 C24.8789045,30.2890625 24.703125,30.0468774 24.703125,29.5625 C24.703125,29.2812486 24.777343,28.7910191 24.9257812,28.0917969 C25.0742195,27.3925746 25.1445313,26.8476582 25.1367188,26.4570312 C25.1289062,26.0664043 25.125,21.0117673 25.125,11.2929688 C25.125,10.8085913 24.976564,10.4218764 24.6796875,10.1328125 L24.9140625,9.8984375 C25.2187515,10.195314 25.6054664,10.34375 26.0742188,10.34375 L36.5742188,10.34375 C38.214852,10.34375 39.3183565,10.3925776 39.8847656,10.4902344 C40.4511747,10.5878911 40.9472635,10.6914057 41.3730469,10.8007812 C41.7988303,10.9101568 42.1582017,11.0449211 42.4511719,11.2050781 C42.7441421,11.3652352 43.0410141,11.5644519 43.3417969,11.8027344 C43.6425796,12.0410168 43.8828116,12.3124985 44.0625,12.6171875 C44.4765646,13.3125035 44.6835938,14.0507773 44.6835938,14.8320312 C44.6835938,15.6132852 44.6230475,16.2519506 44.5019531,16.7480469 C44.3808588,17.2441431 44.1796889,17.7109353 43.8984375,18.1484375 C43.2890595,19.0937547 42.2187577,19.5664062 40.6875,19.5664062 L40.59375,19.8359375 C41.08594,20.031251 41.4140617,20.3007795 41.578125,20.6445312 C42.2656284,22.1445388 42.7734359,23.0957011 43.1015625,23.4980469 C43.4296891,23.9003926 43.7343736,24.222655 44.015625,24.4648438 C44.2968764,24.7070325 44.6992161,24.9531237 45.2226562,25.203125 C45.7460964,25.4531263 46.0624995,25.615234 46.171875,25.6894531 C46.2812505,25.7636722 46.3359375,25.8242185 46.3359375,25.8710938 C46.3359375,26.6523477 46.4414052,27.6562439 46.6523438,28.8828125 C46.8632823,30.1093811 46.96875,30.8984357 46.96875,31.25 C46.96875,31.6015643 46.9550783,31.855468 46.9277344,32.0117188 C46.9003905,32.1679695 46.8398442,32.3222649 46.7460938,32.4746094 C46.6523433,32.6269539 46.5156259,32.703125 46.3359375,32.703125 C46.1562491,32.703125 46.0214848,32.57422 45.9316406,32.3164062 C45.8417964,32.0585925 45.796875,31.7421894 45.796875,31.3671875 C45.796875,30.9921856 45.8476557,30.3222704 45.9492188,29.3574219 C46.0507818,28.3925733 46.1015625,27.664065 46.1015625,27.171875 C46.1015625,26.1953076 45.7851594,25.7070312 45.1523438,25.7070312 C44.8398422,25.7070312 44.6074226,25.7617182 44.4550781,25.8710938 C44.3027336,25.9804693 44.2265625,26.2050764 44.2265625,26.5449219 C44.2265625,26.8847673 44.2968743,27.4257775 44.4375,28.1679688 C44.5781257,28.91016 44.6484375,29.4707012 44.6484375,29.8496094 C44.6484375,30.2285175 44.5039077,30.4179688 44.2148438,30.4179688 C43.9257798,30.4179688 43.78125,30.2265644 43.78125,29.84375 Z M35.9765625,14.234375 L33.2109375,14.3164062 C32.0781193,14.3164062 31.3398455,14.1484392 30.9960938,13.8125 L30.75,14.0351562 C31.0625016,14.3398453 31.21875,14.7304664 31.21875,15.2070312 L31.21875,15.9921875 C31.21875,16.4609398 31.0625016,16.8515609 30.75,17.1640625 L30.9960938,17.3984375 C31.3320329,17.0546858 32.0273385,16.8828125 33.0820312,16.8828125 L36.046875,16.9882812 C36.8359414,16.9882812 37.4472635,16.8847667 37.8808594,16.6777344 C38.3144553,16.4707021 38.53125,16.0898465 38.53125,15.5351562 C38.53125,15.183592 38.4101575,14.9082041 38.1679688,14.7089844 C37.92578,14.5097646 37.6328142,14.3808597 37.2890625,14.3222656 C36.9453108,14.2636716 36.5078152,14.234375 35.9765625,14.234375 Z M48.2226562,26.75 L48.2578125,28.6132812 C48.2578125,28.9882831 48.1992193,29.2714834 48.0820312,29.4628906 C47.9648432,29.6542978 47.8242196,29.75 47.6601562,29.75 C47.3320296,29.75 47.1679688,29.4335969 47.1679688,28.8007812 C47.1679688,28.1679656 47.246093,27.4668007 47.4023438,26.6972656 C47.5585945,25.9277305 47.6953119,25.3984389 47.8125,25.109375 L53.4375,11.2695312 C53.5156254,11.0664052 53.5546875,10.8671885 53.5546875,10.671875 C53.5546875,10.4765615 53.4882819,10.2851572 53.3554688,10.0976562 L53.6835938,9.88671875 C53.9101574,10.2226579 54.2617164,10.390625 54.7382812,10.390625 L60.1289062,10.390625 C60.5976586,10.390625 60.9453114,10.2226579 61.171875,9.88671875 L61.5117188,10.0976562 C61.3789056,10.2851572 61.3125,10.4648429 61.3125,10.6367188 C61.3125,10.8085946 61.3593745,11.0156238 61.453125,11.2578125 L67.2421875,25.1210938 C67.4218759,25.5585959 67.6992169,25.9023425 68.0742188,26.1523438 L67.9335938,26.375 C67.5507793,26.1249987 67.1250023,26 66.65625,26 L64.359375,26 C64.3750001,26.1718759 64.3828125,26.2929684 64.3828125,26.3632812 C64.3828125,26.621095 64.2773448,26.75 64.0664062,26.75 C63.9726558,26.75 63.8886722,26.712891 63.8144531,26.6386719 C63.740234,26.5644528 63.703125,26.4589851 63.703125,26.3222656 C63.703125,26.1855462 63.7109374,26.0781254 63.7265625,26 L62.3085938,26 C61.964842,26 61.742188,26.1874981 61.640625,26.5625 C61.5156244,27.0234398 61.453125,27.5527314 61.453125,28.1503906 C61.453125,28.7480499 61.4921871,29.2929663 61.5703125,29.7851562 C61.6484379,30.2773462 61.6875,30.6152335 61.6875,30.7988281 C61.6875,30.9824228 61.6425786,31.1308588 61.5527344,31.2441406 C61.4628902,31.3574224 61.3515632,31.4140625 61.21875,31.4140625 C61.0859368,31.4140625 60.9726567,31.3593755 60.8789062,31.25 C60.7851558,31.1406245 60.7382812,30.9882822 60.7382812,30.7929688 C60.7382812,30.5976553 60.7871089,30.2187528 60.8847656,29.65625 C60.9824224,29.0937472 61.03125,28.6718764 61.03125,28.390625 L61.03125,25.0976562 C60.9531246,24.8867177 60.9140625,24.6914071 60.9140625,24.5117188 C60.9140625,24.3320304 60.9843743,24.140626 61.125,23.9375 L60.8203125,23.7148438 C60.5859363,24.0507829 60.2343773,24.21875 59.765625,24.21875 L54.9492188,24.21875 C54.4804664,24.21875 54.1289074,24.0546891 53.8945312,23.7265625 L53.5898438,23.9375 C53.738282,24.1484386 53.8125,24.3437491 53.8125,24.5234375 C53.8125,24.7031259 53.7851565,24.8945302 53.7304688,25.0976562 L53.7304688,25.109375 C53.6601559,25.3750013 53.625,25.5781243 53.625,25.71875 C53.625,25.8593757 53.7031242,26.0429676 53.859375,26.2695312 L53.5546875,26.4921875 C53.3203113,26.1640609 52.9687523,26 52.5,26 L48.2578125,26 C48.2343749,26.1484382 48.2226562,26.3984357 48.2226562,26.75 Z M56.15625,20.9726562 L58.3945312,20.9726562 C58.8632836,20.9726562 59.2851544,21.097655 59.6601562,21.3476562 L59.8125,21.125 C59.4453107,20.8749987 59.1796883,20.527346 59.015625,20.0820312 L57.5273438,16.2734375 C57.3554679,15.8281228 57.265625,15.3750023 57.2578125,14.9140625 L57.1054688,14.9140625 C57.0898437,15.4296901 57.0117195,15.8828105 56.8710938,16.2734375 L55.5234375,20.0703125 C55.3593742,20.5234398 55.097658,20.8749987 54.7382812,21.125 L54.890625,21.359375 C55.2578143,21.1015612 55.6796851,20.9726562 56.15625,20.9726562 Z M63.7617188,29.8789062 C63.7617188,29.3398411 63.8632802,28.6640666 64.0664062,27.8515625 C64.2929699,28.7890672 64.40625,29.3984361 64.40625,29.6796875 C64.40625,30.0937521 64.2988292,30.3007812 64.0839844,30.3007812 C63.8691396,30.3007812 63.7617188,30.1601577 63.7617188,29.8789062 Z M75.4101562,17.7265625 C75.4101562,20.5703267 76.7851425,21.9921875 79.5351562,21.9921875 C82.28517,21.9921875 83.6601562,20.5703267 83.6601562,17.7265625 C83.6601562,16.3671807 83.2929724,15.3496128 82.5585938,14.6738281 C81.8242151,13.9980435 80.8203189,13.6601562 79.546875,13.6601562 C78.2734311,13.6601562 77.2656287,13.9980435 76.5234375,14.6738281 C75.7812463,15.3496128 75.4101562,16.3671807 75.4101562,17.7265625 Z M86.0976562,32.796875 L86.2734375,30.1015625 C86.2734375,28.7968685 85.9218785,27.9023462 85.21875,27.4179688 L83.5078125,26.2578125 C83.1640608,26.0156238 82.9921875,25.7734387 82.9921875,25.53125 C82.9921875,25.4453121 82.9999999,25.3750003 83.015625,25.3203125 L82.5820312,25.2148438 C82.535156,25.4335948 82.4472663,25.5878902 82.3183594,25.6777344 C82.1894525,25.7675786 81.8574246,25.8515621 81.3222656,25.9296875 C80.7871067,26.0078129 80.1796909,26.046875 79.5,26.046875 C78.8203091,26.046875 78.1640657,26.0195315 77.53125,25.9648438 C76.8984343,25.910156 76.2148474,25.8046883 75.4804688,25.6484375 C74.7460901,25.4921867 74.0761749,25.2890638 73.4707031,25.0390625 C72.8652313,24.7890612 72.2734404,24.4492209 71.6953125,24.0195312 C71.1171846,23.5898416 70.6289082,23.0937528 70.2304688,22.53125 C69.3554644,21.3046814 68.9179688,19.7226659 68.9179688,17.7851562 C68.9179688,14.4179519 70.3359233,12.0781316 73.171875,10.765625 C74.8593834,9.98437109 76.980456,9.59375 79.5351562,9.59375 C84.9961211,9.59375 88.3515563,11.2812331 89.6015625,14.65625 C89.9453142,15.5781296 90.1171875,16.6210879 90.1171875,17.7851562 C90.1171875,19.941417 89.5585993,21.6249939 88.4414062,22.8359375 C88.1054671,23.1953143 87.734377,23.3945311 87.328125,23.4335938 L87.3398438,23.7382812 C87.386719,23.7304687 87.5253895,23.7265625 87.7558594,23.7265625 C87.9863293,23.7265625 88.2617171,23.8359364 88.5820312,24.0546875 L90.0820312,25.0625 C90.425783,25.2968762 90.796873,25.4179687 91.1953125,25.4257812 L91.3242188,25.4140625 L91.3476562,25.7070312 C90.9101541,25.7382814 90.5117205,25.9101547 90.1523438,26.2226562 L87.984375,28.0742188 C87.984375,28.3164075 88.0312495,28.6757789 88.125,29.1523438 C88.2187505,29.6289086 88.265625,29.9843738 88.265625,30.21875 C88.265625,30.6953149 88.0957048,30.9335938 87.7558594,30.9335938 C87.4160139,30.9335938 87.2460938,30.6992211 87.2460938,30.2304688 C87.2460938,30.0117177 87.2949214,29.6875021 87.3925781,29.2578125 C87.4902349,28.8281229 87.5390625,28.4511735 87.5390625,28.1269531 C87.5390625,27.8027328 87.4414072,27.640625 87.2460938,27.640625 C87.0976555,27.640625 86.9902347,27.751952 86.9238281,27.9746094 C86.8574215,28.1972667 86.8242188,28.4765608 86.8242188,28.8125 C86.8242188,29.1484392 86.8789057,29.7871047 86.9882812,30.7285156 C87.0976568,31.6699266 87.1523438,32.3749977 87.1523438,32.84375 C87.1523438,33.3125023 86.9882829,33.546875 86.6601562,33.546875 C86.2851544,33.546875 86.0976562,33.2968775 86.0976562,32.796875 Z M88.1601562,35.7851562 C88.1601562,36.144533 88.0273451,36.3242188 87.7617188,36.3242188 C87.4960924,36.3242188 87.3632812,36.1328144 87.3632812,35.75 C87.3632812,35.3671856 87.4238275,34.9453148 87.5449219,34.484375 C87.6660162,34.0234352 87.7382811,33.742188 87.7617188,33.640625 C87.7851564,33.7500005 87.8359371,33.9687484 87.9140625,34.296875 C88.0781258,34.9296907 88.1601562,35.4257795 88.1601562,35.7851562 Z M111.949219,12.7578125 L112.054688,18.7460938 C112.054688,20.8320417 111.796878,22.3593702 111.28125,23.328125 C110.796873,24.2500046 110.105473,24.9414039 109.207031,25.4023438 C108.183589,25.9335964 106.824227,26.277343 105.128906,26.4335938 L105.128906,28.625 L105.246094,29.8320312 C105.246094,30.0976576 105.171876,30.2304688 105.023438,30.2304688 C104.874999,30.2304688 104.800781,29.9726588 104.800781,29.4570312 L104.871094,27.546875 C104.871094,26.7031208 104.609378,26.28125 104.085938,26.28125 C103.679685,26.28125 103.476562,26.6132779 103.476562,27.2773438 L103.535156,28.296875 C103.535156,28.5312512 103.583984,28.8730446 103.681641,29.3222656 C103.779297,29.7714866 103.828125,30.0898428 103.828125,30.2773438 C103.828125,30.4648447 103.789063,30.6210931 103.710938,30.7460938 C103.632812,30.8710944 103.519532,30.9335938 103.371094,30.9335938 C103.222656,30.9335938 103.111328,30.8691413 103.037109,30.7402344 C102.96289,30.6113275 102.925781,30.4570321 102.925781,30.2773438 C102.925781,30.0976554 102.978515,29.8027364 103.083984,29.3925781 C103.189454,28.9824198 103.242188,28.7187506 103.242188,28.6015625 L103.242188,28.2441406 C103.242188,28.1230463 103.238281,28.0000006 103.230469,27.875 C103.222656,27.7499994 103.203125,27.5937509 103.171875,27.40625 C103.109375,27.015623 102.921877,26.8203125 102.609375,26.8203125 C102.031247,26.8203125 101.742188,27.3906193 101.742188,28.53125 L101.742188,29.0703125 C101.742188,29.3593764 101.812499,29.7812472 101.953125,30.3359375 C102.093751,30.8906278 102.164062,31.2890613 102.164062,31.53125 C102.164062,32.1328155 101.968752,32.4335938 101.578125,32.4335938 C101.382812,32.4335938 101.228516,32.3515633 101.115234,32.1875 C101.001953,32.0234367 100.945312,31.8125013 100.945312,31.5546875 C100.945312,31.2968737 101.009765,30.8593781 101.138672,30.2421875 C101.267579,29.6249969 101.332031,29.1562516 101.332031,28.8359375 L101.332031,26.5039062 C99.1132702,26.4023432 97.4492243,26.0781277 96.3398438,25.53125 C94.4023341,24.5937453 93.4062503,22.8125131 93.3515625,20.1875 C93.3359374,19.4609339 93.328125,18.3789134 93.328125,16.9414062 L93.3515625,11.5273438 C93.3515625,11.0664039 93.1992203,10.6796891 92.8945312,10.3671875 L93.140625,10.1328125 C93.4296889,10.429689 93.8164038,10.578125 94.3007812,10.578125 L98.4492188,10.578125 C98.9257836,10.578125 99.3124985,10.429689 99.609375,10.1328125 L99.8554688,10.3671875 C99.5585923,10.6718765 99.4101562,11.0585914 99.4101562,11.5273438 L99.4335938,17.5507812 C99.4335938,18.7148496 99.4648434,19.4531234 99.5273438,19.765625 C99.5898441,20.0781266 99.6582028,20.3652331 99.7324219,20.6269531 C99.806641,20.8886732 99.8964838,21.0976555 100.001953,21.2539062 C100.107422,21.410157 100.242187,21.576171 100.40625,21.7519531 C100.570313,21.9277353 100.757811,22.0624995 100.96875,22.15625 C101.46094,22.3750011 101.943357,22.484375 102.416016,22.484375 C102.888674,22.484375 103.255858,22.4628908 103.517578,22.4199219 C103.779298,22.3769529 104.009765,22.3066411 104.208984,22.2089844 C104.408204,22.1113276 104.58789,22.0058599 104.748047,21.8925781 C104.908204,21.7792963 105.044921,21.6347665 105.158203,21.4589844 C105.271485,21.2832022 105.371093,21.1152352 105.457031,20.9550781 C105.542969,20.7949211 105.611328,20.5937512 105.662109,20.3515625 C105.712891,20.1093738 105.753906,19.8964853 105.785156,19.7128906 C105.816406,19.529296 105.839844,19.2968764 105.855469,19.015625 C105.878906,18.5859354 105.890625,18.097659 105.890625,17.5507812 L105.914062,11.5273438 C105.914062,11.0507789 105.769533,10.664064 105.480469,10.3671875 L105.703125,10.1328125 C106.000001,10.429689 106.390623,10.578125 106.875,10.578125 L111.023438,10.578125 C111.515627,10.578125 111.906249,10.429689 112.195312,10.1328125 L112.429688,10.3671875 C112.109373,10.6953141 111.949219,11.4921812 111.949219,12.7578125 Z M105.410156,32.5039062 C105.410156,32.8710956 105.281251,33.0546875 105.023438,33.0546875 C104.765624,33.0546875 104.636719,32.8632832 104.636719,32.4804688 C104.636719,32.1054669 104.693359,31.7871107 104.806641,31.5253906 C104.919922,31.2636706 104.988281,31.1328125 105.011719,31.1328125 C105.035156,31.1328125 105.078125,31.2031243 105.140625,31.34375 C105.320313,31.750002 105.410156,32.1367169 105.410156,32.5039062 Z M132.199219,22.90625 L132.152344,24.4296875 C132.152344,25.2812543 132.324217,25.8789045 132.667969,26.2226562 L132.421875,26.4570312 C132.124999,26.1523422 131.734377,26 131.25,26 L127.839844,26 C127.847656,26.1093755 127.851562,26.2539054 127.851562,26.4335938 C127.851562,26.8710959 127.742189,27.0898438 127.523438,27.0898438 C127.304686,27.0898438 127.195312,26.8437525 127.195312,26.3515625 C127.195312,26.2031243 127.199219,26.0859379 127.207031,26 L116.71875,26 C116.531249,26 116.369141,26.3378872 116.232422,27.0136719 C116.095702,27.6894565 116.027344,28.2304667 116.027344,28.6367188 C116.027344,29.0429708 116.121093,29.7714791 116.308594,30.8222656 C116.496095,31.8730521 116.589844,32.6933564 116.589844,33.2832031 C116.589844,33.8730498 116.359377,34.1679688 115.898438,34.1679688 C115.398435,34.1679688 115.148438,33.8632843 115.148438,33.2539062 C115.148438,32.6445282 115.253905,31.7988335 115.464844,30.7167969 C115.675782,29.6347602 115.78125,28.8203152 115.78125,28.2734375 L115.769531,11.3398438 C115.769531,10.8632789 115.613283,10.4726578 115.300781,10.1679688 L115.546875,9.921875 C115.867189,10.2343766 116.25781,10.390625 116.71875,10.390625 L120.914062,10.390625 C121.390627,10.390625 121.781248,10.2343766 122.085938,9.921875 L122.332031,10.1679688 C122.01953,10.4726578 121.863281,10.8632789 121.863281,11.3398438 L121.863281,21.0078125 C121.863281,21.4765648 121.710939,21.8632797 121.40625,22.1679688 L121.652344,22.4140625 C122.050783,22.015623 122.921868,21.8164062 124.265625,21.8164062 L129.820312,22.0976562 C131.156257,22.0976562 132.023436,21.8984395 132.421875,21.5 L132.667969,21.734375 C132.355467,22.039064 132.199219,22.4296851 132.199219,22.90625 Z M127.921875,31.203125 C127.921875,31.5234391 127.789064,31.6835938 127.523438,31.6835938 C127.257811,31.6835938 127.125,31.4921894 127.125,31.109375 C127.125,30.7734358 127.189452,30.3613306 127.318359,29.8730469 C127.447266,29.3847632 127.515625,29.1210939 127.523438,29.0820312 C127.539063,29.1601566 127.578125,29.3203113 127.640625,29.5625 C127.703125,29.8046887 127.75,29.9921868 127.78125,30.125 C127.875,30.5234395 127.921875,30.8828109 127.921875,31.203125 Z M134.308594,26.75 L134.34375,28.6132812 C134.34375,28.9882831 134.285157,29.2714834 134.167969,29.4628906 C134.050781,29.6542978 133.910157,29.75 133.746094,29.75 C133.417967,29.75 133.253906,29.4335969 133.253906,28.8007812 C133.253906,28.1679656 133.33203,27.4668007 133.488281,26.6972656 C133.644532,25.9277305 133.781249,25.3984389 133.898438,25.109375 L139.523438,11.2695312 C139.601563,11.0664052 139.640625,10.8671885 139.640625,10.671875 C139.640625,10.4765615 139.574219,10.2851572 139.441406,10.0976562 L139.769531,9.88671875 C139.996095,10.2226579 140.347654,10.390625 140.824219,10.390625 L146.214844,10.390625 C146.683596,10.390625 147.031249,10.2226579 147.257812,9.88671875 L147.597656,10.0976562 C147.464843,10.2851572 147.398438,10.4648429 147.398438,10.6367188 C147.398438,10.8085946 147.445312,11.0156238 147.539062,11.2578125 L153.328125,25.1210938 C153.507813,25.5585959 153.785154,25.9023425 154.160156,26.1523438 L154.019531,26.375 C153.636717,26.1249987 153.21094,26 152.742188,26 L150.445312,26 C150.460938,26.1718759 150.46875,26.2929684 150.46875,26.3632812 C150.46875,26.621095 150.363282,26.75 150.152344,26.75 C150.058593,26.75 149.97461,26.712891 149.900391,26.6386719 C149.826172,26.5644528 149.789062,26.4589851 149.789062,26.3222656 C149.789062,26.1855462 149.796875,26.0781254 149.8125,26 L148.394531,26 C148.05078,26 147.828126,26.1874981 147.726562,26.5625 C147.601562,27.0234398 147.539062,27.5527314 147.539062,28.1503906 C147.539062,28.7480499 147.578125,29.2929663 147.65625,29.7851562 C147.734375,30.2773462 147.773438,30.6152335 147.773438,30.7988281 C147.773438,30.9824228 147.728516,31.1308588 147.638672,31.2441406 C147.548828,31.3574224 147.437501,31.4140625 147.304688,31.4140625 C147.171874,31.4140625 147.058594,31.3593755 146.964844,31.25 C146.871093,31.1406245 146.824219,30.9882822 146.824219,30.7929688 C146.824219,30.5976553 146.873046,30.2187528 146.970703,29.65625 C147.06836,29.0937472 147.117188,28.6718764 147.117188,28.390625 L147.117188,25.0976562 C147.039062,24.8867177 147,24.6914071 147,24.5117188 C147,24.3320304 147.070312,24.140626 147.210938,23.9375 L146.90625,23.7148438 C146.671874,24.0507829 146.320315,24.21875 145.851562,24.21875 L141.035156,24.21875 C140.566404,24.21875 140.214845,24.0546891 139.980469,23.7265625 L139.675781,23.9375 C139.824219,24.1484386 139.898438,24.3437491 139.898438,24.5234375 C139.898438,24.7031259 139.871094,24.8945302 139.816406,25.0976562 L139.816406,25.109375 C139.746093,25.3750013 139.710938,25.5781243 139.710938,25.71875 C139.710938,25.8593757 139.789062,26.0429676 139.945312,26.2695312 L139.640625,26.4921875 C139.406249,26.1640609 139.05469,26 138.585938,26 L134.34375,26 C134.320312,26.1484382 134.308594,26.3984357 134.308594,26.75 Z M142.242188,20.9726562 L144.480469,20.9726562 C144.949221,20.9726562 145.371092,21.097655 145.746094,21.3476562 L145.898438,21.125 C145.531248,20.8749987 145.265626,20.527346 145.101562,20.0820312 L143.613281,16.2734375 C143.441405,15.8281228 143.351563,15.3750023 143.34375,14.9140625 L143.191406,14.9140625 C143.175781,15.4296901 143.097657,15.8828105 142.957031,16.2734375 L141.609375,20.0703125 C141.445312,20.5234398 141.183596,20.8749987 140.824219,21.125 L140.976562,21.359375 C141.343752,21.1015612 141.765623,20.9726562 142.242188,20.9726562 Z M149.847656,29.8789062 C149.847656,29.3398411 149.949218,28.6640666 150.152344,27.8515625 C150.378907,28.7890672 150.492188,29.3984361 150.492188,29.6796875 C150.492188,30.0937521 150.384767,30.3007812 150.169922,30.3007812 C149.955077,30.3007812 149.847656,30.1601577 149.847656,29.8789062 Z" id="Draqula" fill="#FF8E8E"></path>
        </g>
    </g>
</svg>