<?xml version="1.0" ?><!DOCTYPE svg  PUBLIC '-//W3C//DTD SVG 1.1//EN'  'http://www.w3.org/Graphics/SVG/1.1/DTD/svg11.dtd'><svg height="512px" style="enable-background:new 0 0 512 512;" version="1.1" viewBox="0 0 512 512" width="512px" xml:space="preserve" xmlns="http://www.w3.org/2000/svg" xmlns:xlink="http://www.w3.org/1999/xlink"><g id="comp_x5F_142-github"><g><path d="M179.858,392.884c0,1.855-2.133,3.339-4.822,3.339c-3.062,0.277-5.193-1.205-5.193-3.339c0-1.854,2.132-3.34,4.823-3.34    C177.448,389.267,179.858,390.75,179.858,392.884z M151.017,388.709c-0.649,1.857,1.205,3.988,3.987,4.544    c2.411,0.928,5.194,0,5.75-1.853c0.558-1.856-1.205-3.988-3.987-4.824C154.355,385.929,151.666,386.855,151.017,388.709    L151.017,388.709z M192.008,387.133c-2.689,0.65-4.544,2.411-4.267,4.544c0.279,1.854,2.69,3.063,5.473,2.413    c2.69-0.65,4.544-2.413,4.266-4.267C197.201,388.06,194.698,386.855,192.008,387.133z M253.032,31.747    c-128.634,0-227.031,97.656-227.031,226.291c0,102.851,64.732,190.862,157.197,221.839c11.871,2.133,16.044-5.194,16.044-11.223    c0-5.75-0.277-37.469-0.277-56.942c0,0-64.921,13.911-78.554-27.639c0,0-10.572-26.988-25.782-33.944    c0,0-21.238-14.56,1.484-14.281c0,0,23.094,1.856,35.799,23.928c20.31,35.799,54.346,25.505,67.607,19.383    c2.134-14.839,8.162-25.133,14.84-31.254c-51.843-5.75-104.149-13.263-104.149-102.479c0-25.504,7.048-38.302,21.888-54.625    c-2.411-6.028-10.295-30.882,2.411-62.972c19.383-6.028,63.99,25.041,63.99,25.041c18.55-5.194,38.489-7.883,58.242-7.883    c19.755,0,39.694,2.689,58.241,7.883c0,0,44.611-31.161,63.993-25.041c12.705,32.181,4.822,56.944,2.412,62.972    c14.84,16.415,23.926,29.212,23.926,54.625c0,89.496-54.625,96.636-106.466,102.479c8.532,7.325,15.765,21.238,15.765,43.032    c0,31.253-0.277,69.928-0.277,77.531c0,6.028,4.266,13.355,16.044,11.223c92.742-30.79,155.62-118.802,155.62-221.652    C485.999,129.403,381.665,31.747,253.032,31.747z M116.146,351.614c-1.206,0.927-0.928,3.061,0.647,4.82    c1.484,1.485,3.617,2.133,4.823,0.93c1.205-0.93,0.927-3.061-0.649-4.823C119.484,351.057,117.352,350.408,116.146,351.614z     M106.129,344.102c-0.648,1.205,0.278,2.688,2.134,3.616c1.483,0.929,3.339,0.649,3.988-0.649    c0.648-1.205-0.278-2.688-2.133-3.617C108.263,342.895,106.777,343.174,106.129,344.102z M136.178,377.116    c-1.483,1.206-0.927,3.989,1.205,5.75c2.133,2.134,4.822,2.413,6.028,0.927c1.205-1.204,0.649-3.987-1.206-5.748    C140.165,375.912,137.383,375.633,136.178,377.116z M125.605,363.485c-1.484,0.926-1.484,3.337,0,5.47    c1.484,2.134,3.988,3.061,5.193,2.134c1.483-1.206,1.483-3.617,0-5.75C129.5,363.207,127.09,362.278,125.605,363.485    L125.605,363.485z"/></g></g><g id="Layer_1"/></svg>