<?xml version="1.0" ?><!DOCTYPE svg  PUBLIC '-//W3C//DTD SVG 1.1//EN'  'http://www.w3.org/Graphics/SVG/1.1/DTD/svg11.dtd'><svg height="512px" style="enable-background:new 0 0 512 512;" version="1.1" viewBox="0 0 512 512" width="512px" xml:space="preserve" xmlns="http://www.w3.org/2000/svg" xmlns:xlink="http://www.w3.org/1999/xlink"><g id="comp_x5F_345-twitter"><g><path d="M438.717,162.307c0.292,4.088,0.292,8.174,0.292,12.259c0,124.634-94.861,268.237-268.237,268.237    c-53.414,0-103.032-15.468-144.771-42.321c7.588,0.874,14.885,1.166,22.766,1.166c44.073,0,84.645-14.884,117.043-40.276    c-41.447-0.877-76.181-28.022-88.147-65.383c5.838,0.875,11.675,1.459,17.805,1.459c8.465,0,16.931-1.168,24.81-3.209    c-43.197-8.758-75.597-46.702-75.597-92.527v-1.167c12.55,7.005,27.146,11.383,42.613,11.967    c-25.393-16.93-42.029-45.826-42.029-78.516c0-17.515,4.669-33.566,12.842-47.577c46.409,57.208,116.169,94.569,194.391,98.655    c-1.458-7.005-2.335-14.3-2.335-21.599c0-51.954,42.032-94.277,94.277-94.277c27.145,0,51.662,11.383,68.884,29.771    c21.307-4.085,41.736-11.967,59.834-22.766c-7.005,21.892-21.891,40.279-41.446,51.954c18.973-2.042,37.361-7.298,54.289-14.594    C473.158,132.243,457.104,148.88,438.717,162.307L438.717,162.307z"/></g></g><g id="Layer_1"/></svg>