<?xml version="1.0" ?><!DOCTYPE svg  PUBLIC '-//W3C//DTD SVG 1.1//EN'  'http://www.w3.org/Graphics/SVG/1.1/DTD/svg11.dtd'><svg height="512px" style="enable-background:new 0 0 512 512;" version="1.1" viewBox="0 0 512 512" width="512px" xml:space="preserve" xmlns="http://www.w3.org/2000/svg" xmlns:xlink="http://www.w3.org/1999/xlink"><g id="comp_x5F_91-discord"><g><path d="M321.779,244.5c0,14.031-10.35,25.53-23.46,25.53c-12.88,0-23.46-11.499-23.46-25.53c0-14.03,10.351-25.529,23.46-25.529    C311.43,218.971,321.779,230.47,321.779,244.5z M214.37,218.971c-13.111,0-23.461,11.499-23.461,25.529    c0,14.031,10.581,25.53,23.461,25.53c13.109,0,23.459-11.499,23.459-25.53C238.06,230.47,227.479,218.971,214.37,218.971z     M457.249,73.381v412.618c-57.944-51.206-39.412-34.255-106.721-96.829l12.192,42.549H101.899    c-25.989,0-47.148-21.158-47.148-47.381V73.381c0-26.221,21.159-47.38,47.148-47.38h308.198    C436.089,26.001,457.249,47.16,457.249,73.381z M391.698,291.419c0-74.059-33.119-134.089-33.119-134.089    c-33.119-24.839-64.63-24.149-64.63-24.149l-3.22,3.681C329.83,148.82,348,166.071,348,166.071    c-54.636-29.944-118.813-29.949-171.81-6.67c-8.512,3.909-13.571,6.67-13.571,6.67s19.09-18.17,60.49-30.13l-2.299-2.761    c0,0-31.511-0.689-64.631,24.149c0,0-33.119,60.03-33.119,134.089c0,0,19.32,33.35,70.148,34.96c0,0,8.511-10.349,15.41-19.09    c-29.21-8.74-40.248-27.138-40.248-27.138c3.383,2.365,8.962,5.438,9.43,5.748c38.82,21.743,93.965,28.864,143.52,8.051    c8.049-2.989,17.02-7.36,26.449-13.57c0,0-11.5,18.861-41.63,27.37c6.901,8.739,15.181,18.629,15.181,18.629    C372.149,324.769,391.698,291.419,391.698,291.419L391.698,291.419z"/></g></g><g id="Layer_1"/></svg>