<svg width="1024" height="512" xmlns="http://www.w3.org/2000/svg" xmlns:xlink="http://www.w3.org/1999/xlink"><defs><path id="a" d="M0 0h1024v512H0z"/></defs><g fill="none" fill-rule="evenodd"><mask id="b" fill="#fff"><use xlink:href="#a"/></mask><use fill="#FFF5F5" xlink:href="#a"/><g mask="url(#b)" fill-rule="nonzero"><path d="M328.5 278.719l.656-4.438c0-3.062-3.27-4.594-9.812-4.594-1.125 0-1.906.26-2.344.782-.438.52-.656 1.406-.656 2.656 0 1.25.187 2.984.562 5.203.375 2.219.563 3.917.563 5.094 0 1.177-.469 1.765-1.406 1.765-.938 0-1.407-.62-1.407-1.859 0-1.24.146-3.11.438-5.61.291-2.5.437-4.197.437-5.093 0-2.125-.385-3.188-1.156-3.188-.5 0-.75.594-.75 1.782l.75 5.187c0 1.23-.443 1.844-1.328 1.844-.886 0-1.328-.625-1.328-1.875l.719-5.75-.032-5.188v-33.53c0-1.292-.406-2.334-1.219-3.126l.625-.656c.855.833 1.896 1.25 3.125 1.25h25.813c12.458 0 20.187 4.052 23.188 12.156.833 2.292 1.25 4.735 1.25 7.328 0 2.594-.162 4.823-.485 6.688-.323 1.864-.734 3.5-1.234 4.906a12.057 12.057 0 0 1-2.11 3.735c-.906 1.083-1.812 1.994-2.718 2.734-.907.74-2.058 1.37-3.454 1.89a32.851 32.851 0 0 1-3.875 1.204c-1.187.28-2.677.494-4.468.64-2.813.23-6.115.344-9.906.344h-4.532c-1.75 0-2.625 1.25-2.625 3.75l.5 4c0 .792-.27 1.188-.812 1.188-.646 0-.969-.407-.969-1.22zm17.906-21.5c.646-.834 1.146-1.912 1.5-3.235.354-1.323.531-2.916.531-4.78 0-1.865-.312-3.423-.937-4.673s-1.458-2.166-2.5-2.75a12.648 12.648 0 0 0-3.469-1.297 20.612 20.612 0 0 0-4-.468 762.395 762.395 0 0 0-3.906-.078c-2.958-.042-4.854-.48-5.688-1.313l-.625.625c.792.77 1.188 1.812 1.188 3.125v7.188c0 4.791.02 8.374.063 10.75h7.093c3.563 0 6.089-.313 7.578-.938 1.49-.625 2.547-1.344 3.172-2.156zM330.5 289.78c0 .959-.349 1.438-1.047 1.438s-1.047-.39-1.047-1.172c0-.781.047-1.464.14-2.047a26.92 26.92 0 0 1 .485-2.234c.23-.907.365-1.474.406-1.704.063.271.178.724.344 1.36.167.635.292 1.13.375 1.484.23.98.344 1.938.344 2.875zm93.25-8.531l.688-6.469c0-2.625-1.068-4.63-3.204-6.015-2.135-1.386-4.38-2-6.734-1.844-2.354.156-4 .953-4.938 2.39-.479.688-.718 1.5-.718 2.438l-.156 8.375c0 1.146.177 2.849.53 5.11.355 2.26.532 3.963.532 5.109 0 2.02-.573 3.031-1.719 3.031-1.146 0-1.719-.98-1.719-2.938 0-1.291.188-3.145.563-5.562.375-2.417.589-4.25.64-5.5.053-1.25.079-3.917.079-8 0-1.083-.334-2.333-1-3.75-.667-1.417-1.719-3.365-3.156-5.844-1.438-2.479-2.615-4.666-3.532-6.562l-.937-.531c-.5.916-1.386 1.375-2.656 1.375l-2.625.093c-1.792 0-3.136-.437-4.032-1.312l-.656.625c.063.77.094 2.416.094 4.937l-.031 7.656c0 2.292.041 3.98.125 5.063l.593 4.594c0 .854-.291 1.281-.875 1.281-.583 0-.875-.396-.875-1.188l.5-3.875c0-.937-.276-1.682-.828-2.234-.552-.552-1.27-.828-2.156-.828-.886 0-1.667.39-2.344 1.172-.677.781-1.015 1.797-1.015 3.047 0 1.25.229 2.942.687 5.078.458 2.135.688 3.672.688 4.61 0 1.958-.698 2.937-2.094 2.937s-2.094-.959-2.094-2.875c0-.896.203-2.459.61-4.688.406-2.229.609-4 .609-5.312 0-1.313-.302-2.39-.906-3.235-.605-.843-1.292-1.265-2.063-1.265-.77 0-1.427.265-1.969.797-.541.53-.812 1.192-.812 1.984l.844 7.406c0 1.271-.47 1.906-1.407 1.906s-1.406-.645-1.406-1.937c0-.75.198-2.057.594-3.922.396-1.864.583-3.318.562-4.36-.02-1.04-.031-14.52-.031-40.437 0-1.291-.396-2.323-1.188-3.094l.625-.625c.813.792 1.844 1.188 3.094 1.188h28c4.375 0 7.318.13 8.828.39 1.51.261 2.834.537 3.97.829 1.135.291 2.093.65 2.874 1.078.781.427 1.573.958 2.375 1.594a7.87 7.87 0 0 1 1.922 2.172c1.104 1.854 1.656 3.822 1.656 5.906 0 2.083-.161 3.786-.484 5.11a12.224 12.224 0 0 1-1.61 3.733c-1.625 2.521-4.479 3.782-8.562 3.782l-.25.719c1.313.52 2.187 1.24 2.625 2.156 1.833 4 3.187 6.536 4.063 7.61.875 1.072 1.687 1.931 2.437 2.577.75.646 1.823 1.302 3.219 1.969s2.24 1.099 2.531 1.297c.292.198.438.36.438.484 0 2.084.28 4.76.843 8.031.563 3.271.844 5.375.844 6.313 0 .938-.036 1.615-.11 2.031a3.504 3.504 0 0 1-.484 1.235c-.25.406-.614.609-1.094.609-.479 0-.838-.344-1.078-1.031-.24-.688-.359-1.531-.359-2.531 0-1 .135-2.787.406-5.36.271-2.573.406-4.515.406-5.828 0-2.604-.843-3.906-2.53-3.906-.834 0-1.454.146-1.86.437-.406.292-.61.89-.61 1.797 0 .906.188 2.35.563 4.328.375 1.98.563 3.474.563 4.485 0 1.01-.386 1.515-1.157 1.515-.77 0-1.156-.51-1.156-1.531zm-20.813-41.625l-7.375.219c-3.02 0-4.99-.448-5.906-1.344l-.656.594c.833.812 1.25 1.854 1.25 3.125v2.094c0 1.25-.417 2.291-1.25 3.125l.656.625c.896-.917 2.75-1.375 5.563-1.375l7.906.28c2.104 0 3.734-.275 4.89-.827 1.157-.552 1.735-1.568 1.735-3.047 0-.938-.323-1.672-.969-2.203-.646-.532-1.427-.875-2.344-1.032-.916-.156-2.083-.234-3.5-.234zM435.594 273l.094 4.969c0 1-.157 1.755-.47 2.265-.312.51-.687.766-1.124.766-.875 0-1.313-.844-1.313-2.531 0-1.688.209-3.558.625-5.61.417-2.052.781-3.463 1.094-4.234l15-36.906a4.42 4.42 0 0 0 .313-1.594c0-.52-.178-1.031-.532-1.531l.875-.563c.604.896 1.542 1.344 2.813 1.344h14.375c1.25 0 2.177-.448 2.781-1.344l.906.563c-.354.5-.531.979-.531 1.437 0 .459.125 1.01.375 1.656l15.438 36.97c.479 1.166 1.218 2.083 2.218 2.75l-.375.593a6.097 6.097 0 0 0-3.406-1h-6.125c.042.458.063.781.063.969 0 .687-.282 1.031-.844 1.031a.927.927 0 0 1-.672-.297c-.198-.198-.297-.479-.297-.844 0-.364.02-.65.063-.859h-3.782c-.916 0-1.51.5-1.781 1.5-.333 1.23-.5 2.64-.5 4.234 0 1.594.104 3.047.313 4.36.208 1.312.312 2.213.312 2.703 0 .49-.12.885-.36 1.187-.239.302-.536.454-.89.454s-.656-.146-.906-.438c-.25-.292-.375-.698-.375-1.219 0-.52.13-1.531.39-3.031.26-1.5.391-2.625.391-3.375v-8.781c-.208-.563-.313-1.084-.313-1.563 0-.479.188-.99.563-1.531l-.813-.594c-.625.896-1.562 1.344-2.812 1.344h-12.844c-1.25 0-2.187-.437-2.812-1.313l-.813.563c.396.563.594 1.083.594 1.563 0 .479-.073.99-.219 1.53v.032c-.187.708-.281 1.25-.281 1.625s.208.865.625 1.469l-.813.594c-.625-.876-1.562-1.313-2.812-1.313h-11.313c-.062.396-.093 1.062-.093 2zm21.156-15.406h5.969c1.25 0 2.375.333 3.375 1l.406-.594c-.98-.667-1.687-1.594-2.125-2.781l-3.969-10.156a10.493 10.493 0 0 1-.719-3.625h-.406c-.041 1.375-.25 2.583-.625 3.625l-3.594 10.125c-.437 1.208-1.135 2.145-2.093 2.812l.406.625c.98-.688 2.104-1.031 3.375-1.031zm20.281 23.75c0-1.438.271-3.24.813-5.406.604 2.5.906 4.124.906 4.875 0 1.104-.286 1.656-.86 1.656-.572 0-.859-.375-.859-1.125zm31.063-32.406c0 7.583 3.666 11.375 11 11.375 7.333 0 11-3.792 11-11.375 0-3.626-.98-6.339-2.938-8.141-1.958-1.802-4.635-2.703-8.031-2.703-3.396 0-6.083.9-8.063 2.703-1.979 1.802-2.968 4.515-2.968 8.14zm28.5 40.187l.468-7.188c0-3.479-.937-5.864-2.812-7.156l-4.563-3.094c-.916-.645-1.375-1.291-1.375-1.937 0-.23.021-.417.063-.563l-1.156-.28c-.125.583-.36.994-.703 1.234-.344.24-1.23.463-2.657.671-1.427.209-3.046.313-4.859.313-1.813 0-3.562-.073-5.25-.219-1.688-.146-3.51-.427-5.469-.844-1.958-.416-3.745-.958-5.36-1.625-1.614-.666-3.192-1.572-4.733-2.718a17.63 17.63 0 0 1-3.907-3.969c-2.333-3.27-3.5-7.49-3.5-12.656 0-8.98 3.781-15.219 11.344-18.719 4.5-2.083 10.156-3.125 16.969-3.125 14.562 0 23.51 4.5 26.843 13.5.917 2.458 1.375 5.24 1.375 8.344 0 5.75-1.49 10.24-4.468 13.469-.896.958-1.886 1.49-2.969 1.593l.031.813c.125-.021.495-.031 1.11-.031.614 0 1.349.291 2.203.875l4 2.687c.916.625 1.906.948 2.968.969l.344-.031.063.78c-1.167.084-2.23.542-3.188 1.376l-5.781 4.937c0 .646.125 1.604.375 2.875s.375 2.219.375 2.844c0 1.27-.453 1.906-1.36 1.906-.906 0-1.359-.625-1.359-1.875 0-.583.13-1.448.39-2.594.261-1.145.391-2.15.391-3.015 0-.865-.26-1.297-.78-1.297-.397 0-.683.297-.86.89-.177.594-.266 1.34-.266 2.235 0 .896.146 2.599.438 5.11.291 2.51.437 4.39.437 5.64s-.437 1.875-1.312 1.875c-1 0-1.5-.667-1.5-2zm5.5 7.969c0 .958-.354 1.437-1.063 1.437-.708 0-1.062-.51-1.062-1.531 0-1.02.161-2.146.484-3.375.323-1.23.516-1.98.578-2.25.063.292.198.875.407 1.75.437 1.688.656 3.01.656 3.969zm63.437-61.406l.282 15.968c0 5.563-.688 9.636-2.063 12.219-1.292 2.458-3.135 4.302-5.531 5.531-2.73 1.417-6.354 2.334-10.875 2.75V278l.312 3.219c0 .708-.198 1.062-.593 1.062-.396 0-.594-.687-.594-2.062l.187-5.094c0-2.25-.698-3.375-2.093-3.375-1.084 0-1.625.885-1.625 2.656l.156 2.719c0 .625.13 1.536.39 2.734s.391 2.047.391 2.547-.104.917-.313 1.25c-.208.334-.51.5-.906.5a.964.964 0 0 1-.89-.515c-.198-.344-.297-.756-.297-1.235 0-.479.14-1.265.422-2.36.28-1.093.422-1.796.422-2.108v-.954c0-.323-.01-.65-.032-.984-.02-.333-.073-.75-.156-1.25-.167-1.042-.667-1.563-1.5-1.563-1.542 0-2.313 1.521-2.313 4.563v1.438c0 .77.188 1.895.563 3.375.375 1.479.563 2.541.563 3.187 0 1.604-.521 2.406-1.563 2.406-.52 0-.932-.218-1.234-.656-.302-.438-.453-1-.453-1.688 0-.687.171-1.854.515-3.5.344-1.645.516-2.895.516-3.75v-6.218c-5.917-.271-10.354-1.136-13.313-2.594-5.166-2.5-7.823-7.25-7.968-14.25-.042-1.938-.063-4.823-.063-8.656l.063-14.438c0-1.229-.407-2.26-1.22-3.094l.657-.625c.77.792 1.802 1.188 3.094 1.188h11.062c1.271 0 2.302-.396 3.094-1.188l.656.625c-.791.813-1.187 1.844-1.187 3.094l.062 16.063c0 3.104.084 5.073.25 5.906.167.833.35 1.599.547 2.297.198.698.438 1.255.719 1.672a11 11 0 0 0 1.078 1.328c.438.469.937.828 1.5 1.078 1.313.583 2.599.875 3.86.875 1.26 0 2.239-.057 2.937-.172a6.606 6.606 0 0 0 1.844-.562c.53-.26 1.01-.542 1.437-.844a4.15 4.15 0 0 0 1.094-1.156c.302-.47.568-.917.797-1.344.229-.427.411-.964.547-1.61a48.05 48.05 0 0 0 .328-1.703c.083-.49.146-1.109.187-1.859.063-1.146.094-2.448.094-3.906l.063-16.063c0-1.27-.386-2.302-1.157-3.094l.594-.625c.792.792 1.833 1.188 3.125 1.188h11.063c1.312 0 2.354-.396 3.125-1.188l.625.625c-.855.876-1.282 3-1.282 6.375zm-17.437 52.656c0 .979-.344 1.469-1.032 1.469-.687 0-1.03-.51-1.03-1.532 0-1 .15-1.849.452-2.547.302-.698.485-1.046.547-1.046.063 0 .177.187.344.562.48 1.083.719 2.115.719 3.094zm71.437-25.594l-.125 4.063c0 2.27.459 3.864 1.375 4.78l-.656.626c-.792-.813-1.833-1.219-3.125-1.219h-9.094c.021.292.032.677.032 1.156 0 1.167-.292 1.75-.875 1.75-.584 0-.875-.656-.875-1.969 0-.395.01-.708.03-.937H618.25c-.5 0-.932.901-1.297 2.703-.364 1.802-.547 3.245-.547 4.328 0 1.084.25 3.026.75 5.828.5 2.802.75 4.99.75 6.563 0 1.573-.614 2.36-1.843 2.36-1.334 0-2-.813-2-2.438 0-1.625.28-3.88.843-6.766.563-2.885.844-5.057.844-6.515l-.031-45.157c0-1.27-.417-2.312-1.25-3.125l.656-.656c.854.833 1.896 1.25 3.125 1.25h11.188c1.27 0 2.312-.417 3.125-1.25l.656.656c-.834.813-1.25 1.854-1.25 3.125v25.781c0 1.25-.406 2.282-1.219 3.094l.656.656c1.063-1.062 3.386-1.593 6.969-1.593l14.813.75c3.562 0 5.874-.531 6.937-1.594l.656.625c-.833.813-1.25 1.854-1.25 3.125zm-11.406 22.125c0 .854-.354 1.281-1.063 1.281-.708 0-1.062-.51-1.062-1.531 0-.896.172-1.995.516-3.297.343-1.302.526-2.005.547-2.11.041.21.145.636.312 1.282s.292 1.146.375 1.5c.25 1.063.375 2.02.375 2.875zM665.156 273l.094 4.969c0 1-.156 1.755-.469 2.265-.312.51-.687.766-1.125.766-.875 0-1.312-.844-1.312-2.531 0-1.688.208-3.558.625-5.61.416-2.052.781-3.463 1.093-4.234l15-36.906a4.42 4.42 0 0 0 .313-1.594c0-.52-.177-1.031-.531-1.531l.875-.563c.604.896 1.541 1.344 2.812 1.344h14.375c1.25 0 2.177-.448 2.782-1.344l.906.563c-.354.5-.532.979-.532 1.437 0 .459.125 1.01.375 1.656l15.438 36.97c.48 1.166 1.219 2.083 2.219 2.75l-.375.593a6.097 6.097 0 0 0-3.407-1h-6.125c.042.458.063.781.063.969 0 .687-.281 1.031-.844 1.031a.927.927 0 0 1-.672-.297c-.198-.198-.297-.479-.297-.844 0-.364.021-.65.063-.859h-3.781c-.917 0-1.51.5-1.782 1.5-.333 1.23-.5 2.64-.5 4.234 0 1.594.105 3.047.313 4.36.208 1.312.313 2.213.313 2.703 0 .49-.12.885-.36 1.187-.24.302-.536.454-.89.454-.355 0-.657-.146-.907-.438-.25-.292-.375-.698-.375-1.219 0-.52.13-1.531.39-3.031.261-1.5.391-2.625.391-3.375v-8.781c-.208-.563-.312-1.084-.312-1.563 0-.479.187-.99.563-1.531l-.813-.594c-.625.896-1.562 1.344-2.813 1.344h-12.843c-1.25 0-2.188-.437-2.813-1.313l-.812.563c.396.563.593 1.083.593 1.563 0 .479-.072.99-.218 1.53v.032c-.188.708-.282 1.25-.282 1.625s.209.865.625 1.469l-.812.594c-.625-.876-1.562-1.313-2.813-1.313H665.25c-.063.396-.094 1.062-.094 2zm21.157-15.406h5.968c1.25 0 2.375.333 3.375 1l.407-.594c-.98-.667-1.688-1.594-2.125-2.781l-3.97-10.156a10.493 10.493 0 0 1-.718-3.625h-.406c-.042 1.375-.25 2.583-.625 3.625l-3.594 10.125c-.438 1.208-1.135 2.145-2.094 2.812l.407.625c.979-.688 2.104-1.031 3.375-1.031zm20.28 23.75c0-1.438.272-3.24.813-5.406.604 2.5.907 4.124.907 4.875 0 1.104-.287 1.656-.86 1.656s-.86-.375-.86-1.125z" fill="#F56565"/><path d="M328.5 277.719l.656-4.438c0-3.062-3.27-4.594-9.812-4.594-1.125 0-1.906.26-2.344.782-.438.52-.656 1.406-.656 2.656 0 1.25.187 2.984.562 5.203.375 2.219.563 3.917.563 5.094 0 1.177-.469 1.765-1.406 1.765-.938 0-1.407-.62-1.407-1.859 0-1.24.146-3.11.438-5.61.291-2.5.437-4.197.437-5.093 0-2.125-.385-3.188-1.156-3.188-.5 0-.75.594-.75 1.782l.75 5.187c0 1.23-.443 1.844-1.328 1.844-.886 0-1.328-.625-1.328-1.875l.719-5.75-.032-5.188v-33.53c0-1.292-.406-2.334-1.219-3.126l.625-.656c.855.833 1.896 1.25 3.125 1.25h25.813c12.458 0 20.187 4.052 23.188 12.156.833 2.292 1.25 4.735 1.25 7.328 0 2.594-.162 4.823-.485 6.688-.323 1.864-.734 3.5-1.234 4.906a12.057 12.057 0 0 1-2.11 3.735c-.906 1.083-1.812 1.994-2.718 2.734-.907.74-2.058 1.37-3.454 1.89a32.851 32.851 0 0 1-3.875 1.204c-1.187.28-2.677.494-4.468.64-2.813.23-6.115.344-9.906.344h-4.532c-1.75 0-2.625 1.25-2.625 3.75l.5 4c0 .792-.27 1.188-.812 1.188-.646 0-.969-.407-.969-1.22zm17.906-21.5c.646-.834 1.146-1.912 1.5-3.235.354-1.323.531-2.916.531-4.78 0-1.865-.312-3.423-.937-4.673s-1.458-2.166-2.5-2.75a12.648 12.648 0 0 0-3.469-1.297 20.612 20.612 0 0 0-4-.468 762.395 762.395 0 0 0-3.906-.078c-2.958-.042-4.854-.48-5.688-1.313l-.625.625c.792.77 1.188 1.812 1.188 3.125v7.188c0 4.791.02 8.374.063 10.75h7.093c3.563 0 6.089-.313 7.578-.938 1.49-.625 2.547-1.344 3.172-2.156zM330.5 288.78c0 .959-.349 1.438-1.047 1.438s-1.047-.39-1.047-1.172c0-.781.047-1.464.14-2.047a26.92 26.92 0 0 1 .485-2.234c.23-.907.365-1.474.406-1.704.063.271.178.724.344 1.36.167.635.292 1.13.375 1.484.23.98.344 1.938.344 2.875zm93.25-8.531l.688-6.469c0-2.625-1.068-4.63-3.204-6.015-2.135-1.386-4.38-2-6.734-1.844-2.354.156-4 .953-4.938 2.39-.479.688-.718 1.5-.718 2.438l-.156 8.375c0 1.146.177 2.849.53 5.11.355 2.26.532 3.963.532 5.109 0 2.02-.573 3.031-1.719 3.031-1.146 0-1.719-.98-1.719-2.938 0-1.291.188-3.145.563-5.562.375-2.417.589-4.25.64-5.5.053-1.25.079-3.917.079-8 0-1.083-.334-2.333-1-3.75-.667-1.417-1.719-3.365-3.156-5.844-1.438-2.479-2.615-4.666-3.532-6.562l-.937-.531c-.5.916-1.386 1.375-2.656 1.375l-2.625.093c-1.792 0-3.136-.437-4.032-1.312l-.656.625c.063.77.094 2.416.094 4.937l-.031 7.656c0 2.292.041 3.98.125 5.063l.593 4.594c0 .854-.291 1.281-.875 1.281-.583 0-.875-.396-.875-1.188l.5-3.875c0-.937-.276-1.682-.828-2.234-.552-.552-1.27-.828-2.156-.828-.886 0-1.667.39-2.344 1.172-.677.781-1.015 1.797-1.015 3.047 0 1.25.229 2.942.687 5.078.458 2.135.688 3.672.688 4.61 0 1.958-.698 2.937-2.094 2.937s-2.094-.959-2.094-2.875c0-.896.203-2.459.61-4.688.406-2.229.609-4 .609-5.312 0-1.313-.302-2.39-.906-3.235-.605-.843-1.292-1.265-2.063-1.265-.77 0-1.427.265-1.969.797-.541.53-.812 1.192-.812 1.984l.844 7.406c0 1.271-.47 1.906-1.407 1.906s-1.406-.645-1.406-1.937c0-.75.198-2.057.594-3.922.396-1.864.583-3.318.562-4.36-.02-1.04-.031-14.52-.031-40.437 0-1.291-.396-2.323-1.188-3.094l.625-.625c.813.792 1.844 1.188 3.094 1.188h28c4.375 0 7.318.13 8.828.39 1.51.261 2.834.537 3.97.829 1.135.291 2.093.65 2.874 1.078.781.427 1.573.958 2.375 1.594a7.87 7.87 0 0 1 1.922 2.172c1.104 1.854 1.656 3.822 1.656 5.906 0 2.083-.161 3.786-.484 5.11a12.224 12.224 0 0 1-1.61 3.733c-1.625 2.521-4.479 3.782-8.562 3.782l-.25.719c1.313.52 2.187 1.24 2.625 2.156 1.833 4 3.187 6.536 4.063 7.61.875 1.072 1.687 1.931 2.437 2.577.75.646 1.823 1.302 3.219 1.969s2.24 1.099 2.531 1.297c.292.198.438.36.438.484 0 2.084.28 4.76.843 8.031.563 3.271.844 5.375.844 6.313 0 .938-.036 1.615-.11 2.031a3.504 3.504 0 0 1-.484 1.235c-.25.406-.614.609-1.094.609-.479 0-.838-.344-1.078-1.031-.24-.688-.359-1.531-.359-2.531 0-1 .135-2.787.406-5.36.271-2.573.406-4.515.406-5.828 0-2.604-.843-3.906-2.53-3.906-.834 0-1.454.146-1.86.437-.406.292-.61.89-.61 1.797 0 .906.188 2.35.563 4.328.375 1.98.563 3.474.563 4.485 0 1.01-.386 1.515-1.157 1.515-.77 0-1.156-.51-1.156-1.531zm-20.813-41.625l-7.375.219c-3.02 0-4.99-.448-5.906-1.344l-.656.594c.833.812 1.25 1.854 1.25 3.125v2.094c0 1.25-.417 2.291-1.25 3.125l.656.625c.896-.917 2.75-1.375 5.563-1.375l7.906.28c2.104 0 3.734-.275 4.89-.827 1.157-.552 1.735-1.568 1.735-3.047 0-.938-.323-1.672-.969-2.203-.646-.532-1.427-.875-2.344-1.032-.916-.156-2.083-.234-3.5-.234zM435.594 272l.094 4.969c0 1-.157 1.755-.47 2.265-.312.51-.687.766-1.124.766-.875 0-1.313-.844-1.313-2.531 0-1.688.209-3.558.625-5.61.417-2.052.781-3.463 1.094-4.234l15-36.906a4.42 4.42 0 0 0 .313-1.594c0-.52-.178-1.031-.532-1.531l.875-.563c.604.896 1.542 1.344 2.813 1.344h14.375c1.25 0 2.177-.448 2.781-1.344l.906.563c-.354.5-.531.979-.531 1.437 0 .459.125 1.01.375 1.656l15.438 36.97c.479 1.166 1.218 2.083 2.218 2.75l-.375.593a6.097 6.097 0 0 0-3.406-1h-6.125c.042.458.063.781.063.969 0 .687-.282 1.031-.844 1.031a.927.927 0 0 1-.672-.297c-.198-.198-.297-.479-.297-.844 0-.364.02-.65.063-.859h-3.782c-.916 0-1.51.5-1.781 1.5-.333 1.23-.5 2.64-.5 4.234 0 1.594.104 3.047.313 4.36.208 1.312.312 2.213.312 2.703 0 .49-.12.885-.36 1.187-.239.302-.536.454-.89.454s-.656-.146-.906-.438c-.25-.292-.375-.698-.375-1.219 0-.52.13-1.531.39-3.031.26-1.5.391-2.625.391-3.375v-8.781c-.208-.563-.313-1.084-.313-1.563 0-.479.188-.99.563-1.531l-.813-.594c-.625.896-1.562 1.344-2.812 1.344h-12.844c-1.25 0-2.187-.437-2.812-1.313l-.813.563c.396.563.594 1.083.594 1.563 0 .479-.073.99-.219 1.53v.032c-.187.708-.281 1.25-.281 1.625s.208.865.625 1.469l-.813.594c-.625-.876-1.562-1.313-2.812-1.313h-11.313c-.062.396-.093 1.062-.093 2zm21.156-15.406h5.969c1.25 0 2.375.333 3.375 1l.406-.594c-.98-.667-1.687-1.594-2.125-2.781l-3.969-10.156a10.493 10.493 0 0 1-.719-3.625h-.406c-.041 1.375-.25 2.583-.625 3.625l-3.594 10.125c-.437 1.208-1.135 2.145-2.093 2.812l.406.625c.98-.688 2.104-1.031 3.375-1.031zm20.281 23.75c0-1.438.271-3.24.813-5.406.604 2.5.906 4.124.906 4.875 0 1.104-.286 1.656-.86 1.656-.572 0-.859-.375-.859-1.125zm31.063-32.406c0 7.583 3.666 11.375 11 11.375 7.333 0 11-3.792 11-11.375 0-3.626-.98-6.339-2.938-8.141-1.958-1.802-4.635-2.703-8.031-2.703-3.396 0-6.083.9-8.063 2.703-1.979 1.802-2.968 4.515-2.968 8.14zm28.5 40.187l.468-7.188c0-3.479-.937-5.864-2.812-7.156l-4.563-3.094c-.916-.645-1.375-1.291-1.375-1.937 0-.23.021-.417.063-.563l-1.156-.28c-.125.583-.36.994-.703 1.234-.344.24-1.23.463-2.657.671-1.427.209-3.046.313-4.859.313-1.813 0-3.562-.073-5.25-.219-1.688-.146-3.51-.427-5.469-.844-1.958-.416-3.745-.958-5.36-1.625-1.614-.666-3.192-1.572-4.733-2.718a17.63 17.63 0 0 1-3.907-3.969c-2.333-3.27-3.5-7.49-3.5-12.656 0-8.98 3.781-15.219 11.344-18.719 4.5-2.083 10.156-3.125 16.969-3.125 14.562 0 23.51 4.5 26.843 13.5.917 2.458 1.375 5.24 1.375 8.344 0 5.75-1.49 10.24-4.468 13.469-.896.958-1.886 1.49-2.969 1.593l.031.813c.125-.021.495-.031 1.11-.031.614 0 1.349.291 2.203.875l4 2.687c.916.625 1.906.948 2.968.969l.344-.031.063.78c-1.167.084-2.23.542-3.188 1.376l-5.781 4.937c0 .646.125 1.604.375 2.875s.375 2.219.375 2.844c0 1.27-.453 1.906-1.36 1.906-.906 0-1.359-.625-1.359-1.875 0-.583.13-1.448.39-2.594.261-1.145.391-2.15.391-3.015 0-.865-.26-1.297-.78-1.297-.397 0-.683.297-.86.89-.177.594-.266 1.34-.266 2.235 0 .896.146 2.599.438 5.11.291 2.51.437 4.39.437 5.64s-.437 1.875-1.312 1.875c-1 0-1.5-.667-1.5-2zm5.5 7.969c0 .958-.354 1.437-1.063 1.437-.708 0-1.062-.51-1.062-1.531 0-1.02.161-2.146.484-3.375.323-1.23.516-1.98.578-2.25.063.292.198.875.407 1.75.437 1.688.656 3.01.656 3.969zm63.437-61.406l.282 15.968c0 5.563-.688 9.636-2.063 12.219-1.292 2.458-3.135 4.302-5.531 5.531-2.73 1.417-6.354 2.334-10.875 2.75V277l.312 3.219c0 .708-.198 1.062-.593 1.062-.396 0-.594-.687-.594-2.062l.187-5.094c0-2.25-.698-3.375-2.093-3.375-1.084 0-1.625.885-1.625 2.656l.156 2.719c0 .625.13 1.536.39 2.734s.391 2.047.391 2.547-.104.917-.313 1.25c-.208.334-.51.5-.906.5a.964.964 0 0 1-.89-.515c-.198-.344-.297-.756-.297-1.235 0-.479.14-1.265.422-2.36.28-1.093.422-1.796.422-2.108v-.954c0-.323-.01-.65-.032-.984-.02-.333-.073-.75-.156-1.25-.167-1.042-.667-1.563-1.5-1.563-1.542 0-2.313 1.521-2.313 4.563v1.438c0 .77.188 1.895.563 3.375.375 1.479.563 2.541.563 3.187 0 1.604-.521 2.406-1.563 2.406-.52 0-.932-.218-1.234-.656-.302-.438-.453-1-.453-1.688 0-.687.171-1.854.515-3.5.344-1.645.516-2.895.516-3.75v-6.218c-5.917-.271-10.354-1.136-13.313-2.594-5.166-2.5-7.823-7.25-7.968-14.25-.042-1.938-.063-4.823-.063-8.656l.063-14.438c0-1.229-.407-2.26-1.22-3.094l.657-.625c.77.792 1.802 1.188 3.094 1.188h11.062c1.271 0 2.302-.396 3.094-1.188l.656.625c-.791.813-1.187 1.844-1.187 3.094l.062 16.063c0 3.104.084 5.073.25 5.906.167.833.35 1.599.547 2.297.198.698.438 1.255.719 1.672a11 11 0 0 0 1.078 1.328c.438.469.937.828 1.5 1.078 1.313.583 2.599.875 3.86.875 1.26 0 2.239-.057 2.937-.172a6.606 6.606 0 0 0 1.844-.562c.53-.26 1.01-.542 1.437-.844a4.15 4.15 0 0 0 1.094-1.156c.302-.47.568-.917.797-1.344.229-.427.411-.964.547-1.61a48.05 48.05 0 0 0 .328-1.703c.083-.49.146-1.109.187-1.859.063-1.146.094-2.448.094-3.906l.063-16.063c0-1.27-.386-2.302-1.157-3.094l.594-.625c.792.792 1.833 1.188 3.125 1.188h11.063c1.312 0 2.354-.396 3.125-1.188l.625.625c-.855.876-1.282 3-1.282 6.375zm-17.437 52.656c0 .979-.344 1.469-1.032 1.469-.687 0-1.03-.51-1.03-1.532 0-1 .15-1.849.452-2.547.302-.698.485-1.046.547-1.046.063 0 .177.187.344.562.48 1.083.719 2.115.719 3.094zm71.437-25.594l-.125 4.063c0 2.27.459 3.864 1.375 4.78l-.656.626c-.792-.813-1.833-1.219-3.125-1.219h-9.094c.021.292.032.677.032 1.156 0 1.167-.292 1.75-.875 1.75-.584 0-.875-.656-.875-1.969 0-.395.01-.708.03-.937H618.25c-.5 0-.932.901-1.297 2.703-.364 1.802-.547 3.245-.547 4.328 0 1.084.25 3.026.75 5.828.5 2.802.75 4.99.75 6.563 0 1.573-.614 2.36-1.843 2.36-1.334 0-2-.813-2-2.438 0-1.625.28-3.88.843-6.766.563-2.885.844-5.057.844-6.515l-.031-45.157c0-1.27-.417-2.312-1.25-3.125l.656-.656c.854.833 1.896 1.25 3.125 1.25h11.188c1.27 0 2.312-.417 3.125-1.25l.656.656c-.834.813-1.25 1.854-1.25 3.125v25.781c0 1.25-.406 2.282-1.219 3.094l.656.656c1.063-1.062 3.386-1.593 6.969-1.593l14.813.75c3.562 0 5.874-.531 6.937-1.594l.656.625c-.833.813-1.25 1.854-1.25 3.125zm-11.406 22.125c0 .854-.354 1.281-1.063 1.281-.708 0-1.062-.51-1.062-1.531 0-.896.172-1.995.516-3.297.343-1.302.526-2.005.547-2.11.041.21.145.636.312 1.282s.292 1.146.375 1.5c.25 1.063.375 2.02.375 2.875zM665.156 272l.094 4.969c0 1-.156 1.755-.469 2.265-.312.51-.687.766-1.125.766-.875 0-1.312-.844-1.312-2.531 0-1.688.208-3.558.625-5.61.416-2.052.781-3.463 1.093-4.234l15-36.906a4.42 4.42 0 0 0 .313-1.594c0-.52-.177-1.031-.531-1.531l.875-.563c.604.896 1.541 1.344 2.812 1.344h14.375c1.25 0 2.177-.448 2.782-1.344l.906.563c-.354.5-.532.979-.532 1.437 0 .459.125 1.01.375 1.656l15.438 36.97c.48 1.166 1.219 2.083 2.219 2.75l-.375.593a6.097 6.097 0 0 0-3.407-1h-6.125c.042.458.063.781.063.969 0 .687-.281 1.031-.844 1.031a.927.927 0 0 1-.672-.297c-.198-.198-.297-.479-.297-.844 0-.364.021-.65.063-.859h-3.781c-.917 0-1.51.5-1.782 1.5-.333 1.23-.5 2.64-.5 4.234 0 1.594.105 3.047.313 4.36.208 1.312.313 2.213.313 2.703 0 .49-.12.885-.36 1.187-.24.302-.536.454-.89.454-.355 0-.657-.146-.907-.438-.25-.292-.375-.698-.375-1.219 0-.52.13-1.531.39-3.031.261-1.5.391-2.625.391-3.375v-8.781c-.208-.563-.312-1.084-.312-1.563 0-.479.187-.99.563-1.531l-.813-.594c-.625.896-1.562 1.344-2.813 1.344h-12.843c-1.25 0-2.188-.437-2.813-1.313l-.812.563c.396.563.593 1.083.593 1.563 0 .479-.072.99-.218 1.53v.032c-.188.708-.282 1.25-.282 1.625s.209.865.625 1.469l-.812.594c-.625-.876-1.562-1.313-2.813-1.313H665.25c-.063.396-.094 1.062-.094 2zm21.157-15.406h5.968c1.25 0 2.375.333 3.375 1l.407-.594c-.98-.667-1.688-1.594-2.125-2.781l-3.97-10.156a10.493 10.493 0 0 1-.718-3.625h-.406c-.042 1.375-.25 2.583-.625 3.625l-3.594 10.125c-.438 1.208-1.135 2.145-2.094 2.812l.407.625c.979-.688 2.104-1.031 3.375-1.031zm20.28 23.75c0-1.438.272-3.24.813-5.406.604 2.5.907 4.124.907 4.875 0 1.104-.287 1.656-.86 1.656s-.86-.375-.86-1.125z" fill="#FF8E8E"/></g></g></svg>