<?xml version="1.0" encoding="UTF-8"?>
<svg width="1024px" height="512px" viewBox="0 0 1024 512" version="1.1" xmlns="http://www.w3.org/2000/svg" xmlns:xlink="http://www.w3.org/1999/xlink">
    <!-- Generator: Sketch 54.1 (76490) - https://sketchapp.com -->
    <title>Group 2</title>
    <desc>Created with Sketch.</desc>
    <defs>
        <rect id="path-1" x="0" y="0" width="1024" height="512"></rect>
    </defs>
    <g id="Page-1" stroke="none" stroke-width="1" fill="none" fill-rule="evenodd">
        <g id="Group-2">
            <mask id="mask-2" fill="white">
                <use xlink:href="#path-1"></use>
            </mask>
            <use id="Rectangle" fill="#FFF5F5" xlink:href="#path-1"></use>
            <g id="Group" mask="url(#mask-2)" fill-rule="nonzero">
                <g transform="translate(307.000000, 200.000000)" id="Draqula">
                    <path d="M21.5,78.71875 L22.15625,74.28125 C22.15625,71.2187347 18.8854494,69.6875 12.34375,69.6875 C11.2187444,69.6875 10.4375022,69.9479141 10,70.46875 C9.56249781,70.9895859 9.34375,71.8749938 9.34375,73.125 C9.34375,74.3750062 9.53124812,76.1093639 9.90625,78.328125 C10.2812519,80.5468861 10.46875,82.2447858 10.46875,83.421875 C10.46875,84.5989642 10.0000047,85.1875 9.0625,85.1875 C8.12499531,85.1875 7.65625,84.5677145 7.65625,83.328125 C7.65625,82.0885355 7.80208187,80.2187625 8.09375,77.71875 C8.38541813,75.2187375 8.53125,73.5208378 8.53125,72.625 C8.53125,70.4999894 8.14583719,69.4375 7.375,69.4375 C6.8749975,69.4375 6.625,70.0312441 6.625,71.21875 L7.375,76.40625 C7.375,77.6354228 6.93229609,78.25 6.046875,78.25 C5.16145391,78.25 4.71875,77.6250062 4.71875,76.375 L5.4375,70.625 L5.40625,65.4375 L5.40625,31.90625 C5.40625,30.6145769 5.00000406,29.5729206 4.1875,28.78125 L4.8125,28.125 C5.66667094,28.9583375 6.70832719,29.375 7.9375,29.375 L33.75,29.375 C46.2083956,29.375 53.937485,33.4270428 56.9375,41.53125 C57.7708375,43.8229281 58.1875,46.265612 58.1875,48.859375 C58.1875,51.453138 58.0260433,53.6822823 57.703125,55.546875 C57.3802067,57.4114677 56.9687525,59.046868 56.46875,60.453125 C55.9687475,61.859382 55.2656295,63.1041612 54.359375,64.1875 C53.4531205,65.2708387 52.5468795,66.182288 51.640625,66.921875 C50.7343705,67.661462 49.5833403,68.2916641 48.1875,68.8125 C46.7916597,69.3333359 45.5000059,69.7343736 44.3125,70.015625 C43.1249941,70.2968764 41.6354256,70.5104159 39.84375,70.65625 C37.0312359,70.8854178 33.7291856,71 29.9375,71 L25.40625,71 C23.6562413,71 22.78125,72.2499875 22.78125,74.75 L23.28125,78.75 C23.28125,79.5416706 23.0104194,79.9375 22.46875,79.9375 C21.8229134,79.9375 21.5,79.5312541 21.5,78.71875 Z M39.40625,57.21875 C40.0520866,56.3854125 40.5520816,55.3072983 40.90625,53.984375 C41.2604184,52.6614517 41.4375,51.0677177 41.4375,49.203125 C41.4375,47.3385323 41.1250031,45.7812562 40.5,44.53125 C39.8749969,43.2812438 39.0416719,42.3645863 38,41.78125 C36.9583281,41.1979137 35.8020897,40.7656264 34.53125,40.484375 C33.2604103,40.2031236 31.9270903,40.0468752 30.53125,40.015625 C29.1354097,39.9843748 27.8333394,39.9583334 26.625,39.9375 C23.6666519,39.8958331 21.7708375,39.4583375 20.9375,38.625 L20.3125,39.25 C21.1041706,40.0208372 21.5,41.0624934 21.5,42.375 L21.5,49.5625 C21.5,54.3541906 21.5208331,57.9374881 21.5625,60.3125 L28.65625,60.3125 C32.2187678,60.3125 34.7447842,60.0000031 36.234375,59.375 C37.7239658,58.7499969 38.7812469,58.0312541 39.40625,57.21875 Z M23.5,89.78125 C23.5,90.7395881 23.1510452,91.21875 22.453125,91.21875 C21.7552048,91.21875 21.40625,90.8281289 21.40625,90.046875 C21.40625,89.2656211 21.4531245,88.5833363 21.546875,88 C21.6406255,87.4166637 21.8020822,86.6718795 22.03125,85.765625 C22.2604178,84.8593705 22.3958331,84.2916678 22.4375,84.0625 C22.5000003,84.3333347 22.6145825,84.7864552 22.78125,85.421875 C22.9479175,86.0572948 23.0729162,86.5520816 23.15625,86.90625 C23.3854178,87.8854216 23.5,88.8437453 23.5,89.78125 Z M116.75,81.25 L117.4375,74.78125 C117.4375,72.1562369 116.369802,70.1510486 114.234375,68.765625 C112.098948,67.3802014 109.854178,66.7656242 107.5,66.921875 C105.145822,67.0781258 103.500005,67.8749928 102.5625,69.3125 C102.083331,70.0000034 101.84375,70.8124953 101.84375,71.75 L101.6875,80.125 C101.6875,81.2708391 101.864582,82.973947 102.21875,85.234375 C102.572918,87.494803 102.75,89.1979109 102.75,90.34375 C102.75,92.3645934 102.177089,93.375 101.03125,93.375 C99.8854109,93.375 99.3125,92.3958431 99.3125,90.4375 C99.3125,89.1458269 99.4999981,87.2916788 99.875,84.875 C100.250002,82.4583212 100.463541,80.6250062 100.515625,79.375 C100.567709,78.1249938 100.59375,75.4583538 100.59375,71.375 C100.59375,70.2916613 100.26042,69.0416738 99.59375,67.625 C98.92708,66.2083262 97.8750072,64.2604291 96.4375,61.78125 C94.9999928,59.3020709 93.8229213,57.1145928 92.90625,55.21875 L91.96875,54.6875 C91.4687475,55.6041713 90.5833397,56.0625 89.3125,56.0625 L86.6875,56.15625 C84.8958244,56.15625 83.5520878,55.7187544 82.65625,54.84375 L82,55.46875 C82.0625003,56.2395872 82.09375,57.8854041 82.09375,60.40625 L82.0625,68.0625 C82.0625,70.3541781 82.1041663,72.0416613 82.1875,73.125 L82.78125,77.71875 C82.78125,78.5729209 82.4895863,79 81.90625,79 C81.3229137,79 81.03125,78.6041706 81.03125,77.8125 L81.53125,73.9375 C81.53125,72.9999953 81.2552111,72.2552111 80.703125,71.703125 C80.1510389,71.1510389 79.4322961,70.875 78.546875,70.875 C77.6614539,70.875 76.8802117,71.2656211 76.203125,72.046875 C75.5260383,72.8281289 75.1875,73.8437438 75.1875,75.09375 C75.1875,76.3437562 75.4166644,78.0364477 75.875,80.171875 C76.3333356,82.3073023 76.5625,83.8437453 76.5625,84.78125 C76.5625,86.7395931 75.8645903,87.71875 74.46875,87.71875 C73.0729097,87.71875 72.375,86.7604262 72.375,84.84375 C72.375,83.9479122 72.578123,82.3854278 72.984375,80.15625 C73.390627,77.9270722 73.59375,76.1562566 73.59375,74.84375 C73.59375,73.5312434 73.2916697,72.4531292 72.6875,71.609375 C72.0833303,70.7656208 71.3958372,70.34375 70.625,70.34375 C69.8541628,70.34375 69.1979194,70.6093723 68.65625,71.140625 C68.1145806,71.6718777 67.84375,72.3333294 67.84375,73.125 L68.6875,80.53125 C68.6875,81.8020897 68.2187547,82.4375 67.28125,82.4375 C66.3437453,82.4375 65.875,81.7916731 65.875,80.5 C65.875,79.7499963 66.0729147,78.4427177 66.46875,76.578125 C66.8645853,74.7135323 67.0520834,73.2604219 67.03125,72.21875 C67.0104166,71.1770781 67,57.6980462 67,31.78125 C67,30.4895769 66.6041706,29.4583372 65.8125,28.6875 L66.4375,28.0625 C67.2500041,28.8541706 68.2812438,29.25 69.53125,29.25 L97.53125,29.25 C101.906272,29.25 104.848951,29.380207 106.359375,29.640625 C107.869799,29.901043 109.192703,30.1770819 110.328125,30.46875 C111.463547,30.7604181 112.421871,31.1197895 113.203125,31.546875 C113.984379,31.9739605 114.776038,32.5052052 115.578125,33.140625 C116.380212,33.7760448 117.020831,34.4999959 117.5,35.3125 C118.604172,37.1666759 119.15625,39.1354062 119.15625,41.21875 C119.15625,43.3020937 118.994793,45.0052017 118.671875,46.328125 C118.348957,47.6510483 117.812504,48.8958275 117.0625,50.0625 C115.437492,52.5833459 112.583354,53.84375 108.5,53.84375 L108.25,54.5625 C109.562507,55.0833359 110.437498,55.8020787 110.875,56.71875 C112.708343,60.71877 114.062496,63.255203 114.9375,64.328125 C115.812504,65.401047 116.624996,66.2604134 117.375,66.90625 C118.125004,67.5520866 119.19791,68.20833 120.59375,68.875 C121.98959,69.54167 122.833332,69.9739573 123.125,70.171875 C123.416668,70.3697927 123.5625,70.5312494 123.5625,70.65625 C123.5625,72.7395937 123.843747,75.4166503 124.40625,78.6875 C124.968753,81.9583497 125.25,84.0624953 125.25,85 C125.25,85.9375047 125.213542,86.6145813 125.140625,87.03125 C125.067708,87.4479187 124.906251,87.859373 124.65625,88.265625 C124.406249,88.671877 124.041669,88.875 123.5625,88.875 C123.083331,88.875 122.72396,88.5312534 122.484375,87.84375 C122.24479,87.1562466 122.125,86.312505 122.125,85.3125 C122.125,84.312495 122.260415,82.5260545 122.53125,79.953125 C122.802085,77.3801955 122.9375,75.4375066 122.9375,74.125 C122.9375,71.5208203 122.093758,70.21875 120.40625,70.21875 C119.572913,70.21875 118.953127,70.3645819 118.546875,70.65625 C118.140623,70.9479181 117.9375,71.5468705 117.9375,72.453125 C117.9375,73.3593795 118.124998,74.8020734 118.5,76.78125 C118.875002,78.7604266 119.0625,80.2552033 119.0625,81.265625 C119.0625,82.2760467 118.677087,82.78125 117.90625,82.78125 C117.135413,82.78125 116.75,82.2708384 116.75,81.25 Z M95.9375,39.625 L88.5625,39.84375 C85.5416516,39.84375 83.5729213,39.3958378 82.65625,38.5 L82,39.09375 C82.8333375,39.9062541 83.25,40.9479103 83.25,42.21875 L83.25,44.3125 C83.25,45.5625062 82.8333375,46.6041625 82,47.4375 L82.65625,48.0625 C83.5520878,47.1458287 85.4062359,46.6875 88.21875,46.6875 L96.125,46.96875 C98.2291772,46.96875 99.8593692,46.6927111 101.015625,46.140625 C102.171881,45.5885389 102.75,44.5729241 102.75,43.09375 C102.75,42.1562453 102.427087,41.4218777 101.78125,40.890625 C101.135413,40.3593723 100.354171,40.0156258 99.4375,39.859375 C98.5208287,39.7031242 97.3541738,39.625 95.9375,39.625 Z M128.59375,73 L128.6875,77.96875 C128.6875,78.968755 128.531252,79.7239558 128.21875,80.234375 C127.906248,80.7447942 127.531252,81 127.09375,81 C126.218746,81 125.78125,80.1562584 125.78125,78.46875 C125.78125,76.7812416 125.989581,74.9114686 126.40625,72.859375 C126.822919,70.8072814 127.187498,69.3958372 127.5,68.625 L142.5,31.71875 C142.708334,31.1770806 142.8125,30.6458359 142.8125,30.125 C142.8125,29.6041641 142.635418,29.0937525 142.28125,28.59375 L143.15625,28.03125 C143.76042,28.9270878 144.69791,29.375 145.96875,29.375 L160.34375,29.375 C161.593756,29.375 162.52083,28.9270878 163.125,28.03125 L164.03125,28.59375 C163.677082,29.0937525 163.5,29.5729144 163.5,30.03125 C163.5,30.4895856 163.624999,31.0416634 163.875,31.6875 L179.3125,68.65625 C179.791669,69.8229225 180.531245,70.73958 181.53125,71.40625 L181.15625,72 C180.135412,71.33333 179.000006,71 177.75,71 L171.625,71 C171.666667,71.4583356 171.6875,71.7812491 171.6875,71.96875 C171.6875,72.6562534 171.406253,73 170.84375,73 C170.593749,73 170.369793,72.9010427 170.171875,72.703125 C169.973957,72.5052073 169.875,72.2239602 169.875,71.859375 C169.875,71.4947898 169.895833,71.2083344 169.9375,71 L166.15625,71 C165.239579,71 164.645835,71.499995 164.375,72.5 C164.041665,73.7291728 163.875,75.140617 163.875,76.734375 C163.875,78.328133 163.979166,79.7812434 164.1875,81.09375 C164.395834,82.4062566 164.5,83.3072892 164.5,83.796875 C164.5,84.2864608 164.38021,84.6822902 164.140625,84.984375 C163.90104,85.2864598 163.604168,85.4375 163.25,85.4375 C162.895832,85.4375 162.593751,85.2916681 162.34375,85 C162.093749,84.7083319 161.96875,84.3020859 161.96875,83.78125 C161.96875,83.2604141 162.098957,82.2500075 162.359375,80.75 C162.619793,79.2499925 162.75,78.1250037 162.75,77.375 L162.75,68.59375 C162.541666,68.0312472 162.4375,67.5104191 162.4375,67.03125 C162.4375,66.5520809 162.624998,66.0416694 163,65.5 L162.1875,64.90625 C161.562497,65.8020878 160.625006,66.25 159.375,66.25 L146.53125,66.25 C145.281244,66.25 144.343753,65.8125044 143.71875,64.9375 L142.90625,65.5 C143.302085,66.0625028 143.5,66.5833309 143.5,67.0625 C143.5,67.5416691 143.427084,68.0520806 143.28125,68.59375 L143.28125,68.625 C143.093749,69.3333369 143,69.8749981 143,70.25 C143,70.6250019 143.208331,71.1145803 143.625,71.71875 L142.8125,72.3125 C142.187497,71.4374956 141.250006,71 140,71 L128.6875,71 C128.625,71.3958353 128.59375,72.0624953 128.59375,73 Z M149.75,57.59375 L155.71875,57.59375 C156.968756,57.59375 158.093745,57.92708 159.09375,58.59375 L159.5,58 C158.520828,57.33333 157.812502,56.4062559 157.375,55.21875 L153.40625,45.0625 C152.947914,43.8749941 152.708333,42.6666728 152.6875,41.4375 L152.28125,41.4375 C152.239583,42.8125069 152.031252,44.0208281 151.65625,45.0625 L148.0625,55.1875 C147.624998,56.3958394 146.927088,57.33333 145.96875,58 L146.375,58.625 C147.354172,57.9374966 148.47916,57.59375 149.75,57.59375 Z M170.03125,81.34375 C170.03125,79.9062428 170.302081,78.1041775 170.84375,75.9375 C171.44792,78.4375125 171.75,80.0624963 171.75,80.8125 C171.75,81.9166722 171.463545,82.46875 170.890625,82.46875 C170.317705,82.46875 170.03125,82.0937537 170.03125,81.34375 Z M201.09375,48.9375 C201.09375,56.5208712 204.76038,60.3125 212.09375,60.3125 C219.42712,60.3125 223.09375,56.5208712 223.09375,48.9375 C223.09375,45.3124819 222.114593,42.5989673 220.15625,40.796875 C218.197907,38.9947827 215.52085,38.09375 212.125,38.09375 C208.72915,38.09375 206.041677,38.9947827 204.0625,40.796875 C202.083323,42.5989673 201.09375,45.3124819 201.09375,48.9375 Z M229.59375,89.125 L230.0625,81.9375 C230.0625,78.4583159 229.125009,76.0729231 227.25,74.78125 L222.6875,71.6875 C221.770829,71.0416634 221.3125,70.3958366 221.3125,69.75 C221.3125,69.5208322 221.333333,69.3333341 221.375,69.1875 L220.21875,68.90625 C220.093749,69.4895863 219.859377,69.9010405 219.515625,70.140625 C219.171873,70.3802095 218.286465,70.6041656 216.859375,70.8125 C215.432285,71.0208344 213.812509,71.125 212,71.125 C210.187491,71.125 208.437508,71.0520841 206.75,70.90625 C205.062492,70.7604159 203.239593,70.4791687 201.28125,70.0625 C199.322907,69.6458313 197.536466,69.10417 195.921875,68.4375 C194.307284,67.77083 192.729174,66.8645891 191.1875,65.71875 C189.645826,64.5729109 188.343755,63.2500075 187.28125,61.75 C184.947905,58.4791503 183.78125,54.2604425 183.78125,49.09375 C183.78125,40.1145384 187.562462,33.8750175 195.125,30.375 C199.625023,28.2916563 205.281216,27.25 212.09375,27.25 C226.656323,27.25 235.60415,31.749955 238.9375,40.75 C239.854171,43.2083456 240.3125,45.9895678 240.3125,49.09375 C240.3125,54.8437787 238.822932,59.3333172 235.84375,62.5625 C234.947912,63.5208381 233.958339,64.0520828 232.875,64.15625 L232.90625,64.96875 C233.031251,64.9479166 233.401039,64.9375 234.015625,64.9375 C234.630211,64.9375 235.364579,65.2291637 236.21875,65.8125 L240.21875,68.5 C241.135421,69.1250031 242.124995,69.4479166 243.1875,69.46875 L243.53125,69.4375 L243.59375,70.21875 C242.427077,70.3020838 241.364588,70.7604125 240.40625,71.59375 L234.625,76.53125 C234.625,77.1770866 234.749999,78.1354103 235,79.40625 C235.250001,80.6770897 235.375,81.6249969 235.375,82.25 C235.375,83.5208397 234.92188,84.15625 234.015625,84.15625 C233.10937,84.15625 232.65625,83.5312562 232.65625,82.28125 C232.65625,81.6979137 232.786457,80.8333391 233.046875,79.6875 C233.307293,78.5416609 233.4375,77.5364627 233.4375,76.671875 C233.4375,75.8072873 233.177086,75.375 232.65625,75.375 C232.260415,75.375 231.973959,75.671872 231.796875,76.265625 C231.619791,76.859378 231.53125,77.6041622 231.53125,78.5 C231.53125,79.3958378 231.677082,81.0989458 231.96875,83.609375 C232.260418,86.1198042 232.40625,87.9999938 232.40625,89.25 C232.40625,90.5000062 231.968754,91.125 231.09375,91.125 C230.093745,91.125 229.59375,90.45834 229.59375,89.125 Z M235.09375,97.09375 C235.09375,98.0520881 234.739587,98.53125 234.03125,98.53125 C233.322913,98.53125 232.96875,98.0208384 232.96875,97 C232.96875,95.9791616 233.130207,94.8541728 233.453125,93.625 C233.776043,92.3958272 233.96875,91.6458347 234.03125,91.375 C234.09375,91.6666681 234.229166,92.2499956 234.4375,93.125 C234.875002,94.8125084 235.09375,96.1354119 235.09375,97.09375 Z M298.53125,35.6875 L298.8125,51.65625 C298.8125,57.2187778 298.125007,61.2916538 296.75,63.875 C295.458327,66.3333456 293.614595,68.1770772 291.21875,69.40625 C288.48957,70.8229238 284.864606,71.7395813 280.34375,72.15625 L280.34375,78 L280.65625,81.21875 C280.65625,81.9270869 280.458335,82.28125 280.0625,82.28125 C279.666665,82.28125 279.46875,81.5937569 279.46875,80.21875 L279.65625,75.125 C279.65625,72.8749887 278.95834,71.75 277.5625,71.75 C276.479161,71.75 275.9375,72.6354078 275.9375,74.40625 L276.09375,77.125 C276.09375,77.7500031 276.223957,78.6614523 276.484375,79.859375 C276.744793,81.0572977 276.875,81.9062475 276.875,82.40625 C276.875,82.9062525 276.770834,83.322915 276.5625,83.65625 C276.354166,83.989585 276.052085,84.15625 275.65625,84.15625 C275.260415,84.15625 274.963543,83.9843767 274.765625,83.640625 C274.567707,83.2968733 274.46875,82.8854191 274.46875,82.40625 C274.46875,81.9270809 274.609374,81.1406305 274.890625,80.046875 C275.171876,78.9531195 275.3125,78.2500016 275.3125,77.9375 L275.3125,76.984375 C275.3125,76.6614567 275.302083,76.333335 275.28125,76 C275.260417,75.666665 275.208334,75.2500025 275.125,74.75 C274.958332,73.7083281 274.458337,73.1875 273.625,73.1875 C272.083326,73.1875 271.3125,74.7083181 271.3125,77.75 L271.3125,79.1875 C271.3125,79.9583372 271.499998,81.0833259 271.875,82.5625 C272.250002,84.0416741 272.4375,85.1041634 272.4375,85.75 C272.4375,87.3541747 271.916672,88.15625 270.875,88.15625 C270.354164,88.15625 269.94271,87.9375022 269.640625,87.5 C269.33854,87.0624978 269.1875,86.5000034 269.1875,85.8125 C269.1875,85.1249966 269.359373,83.9583416 269.703125,82.3125 C270.046877,80.6666584 270.21875,79.4166709 270.21875,78.5625 L270.21875,72.34375 C264.302054,72.0729153 259.864598,71.2083406 256.90625,69.75 C251.739557,67.2499875 249.083334,62.500035 248.9375,55.5 C248.895833,53.5624903 248.875,50.6771025 248.875,46.84375 L248.9375,32.40625 C248.9375,31.1770772 248.531254,30.1458375 247.71875,29.3125 L248.375,28.6875 C249.145837,29.4791706 250.177077,29.875 251.46875,29.875 L262.53125,29.875 C263.80209,29.875 264.833329,29.4791706 265.625,28.6875 L266.28125,29.3125 C265.489579,30.1250041 265.09375,31.1562438 265.09375,32.40625 L265.15625,48.46875 C265.15625,51.5729322 265.239582,53.5416625 265.40625,54.375 C265.572918,55.2083375 265.755207,55.9739548 265.953125,56.671875 C266.151043,57.3697952 266.390624,57.9270813 266.671875,58.34375 C266.953126,58.7604187 267.312498,59.2031227 267.75,59.671875 C268.187502,60.1406273 268.687497,60.4999988 269.25,60.75 C270.562507,61.3333363 271.848952,61.625 273.109375,61.625 C274.369798,61.625 275.348955,61.5677089 276.046875,61.453125 C276.744795,61.3385411 277.359372,61.151043 277.890625,60.890625 C278.421878,60.630207 278.90104,60.3489598 279.328125,60.046875 C279.75521,59.7447902 280.11979,59.3593773 280.421875,58.890625 C280.72396,58.4218727 280.989582,57.9739605 281.21875,57.546875 C281.447918,57.1197895 281.630208,56.5833366 281.765625,55.9375 C281.901042,55.2916634 282.010416,54.7239608 282.09375,54.234375 C282.177084,53.7447892 282.239583,53.1250037 282.28125,52.375 C282.34375,51.2291609 282.375,49.9270906 282.375,48.46875 L282.4375,32.40625 C282.4375,31.1354103 282.052087,30.1041706 281.28125,29.3125 L281.875,28.6875 C282.666671,29.4791706 283.708327,29.875 285,29.875 L296.0625,29.875 C297.375007,29.875 298.416663,29.4791706 299.1875,28.6875 L299.8125,29.3125 C298.958329,30.1875044 298.53125,32.3124831 298.53125,35.6875 Z M281.09375,88.34375 C281.09375,89.3229216 280.750003,89.8125 280.0625,89.8125 C279.374997,89.8125 279.03125,89.3020884 279.03125,88.28125 C279.03125,87.281245 279.18229,86.4322952 279.484375,85.734375 C279.78646,85.0364548 279.96875,84.6875 280.03125,84.6875 C280.09375,84.6875 280.208332,84.8749981 280.375,85.25 C280.854169,86.3333387 281.09375,87.3645784 281.09375,88.34375 Z M352.53125,62.75 L352.40625,66.8125 C352.40625,69.0833447 352.864579,70.6770787 353.78125,71.59375 L353.125,72.21875 C352.333329,71.4062459 351.291673,71 350,71 L340.90625,71 C340.927083,71.2916681 340.9375,71.6770809 340.9375,72.15625 C340.9375,73.3229225 340.645836,73.90625 340.0625,73.90625 C339.479164,73.90625 339.1875,73.2500066 339.1875,71.9375 C339.1875,71.5416647 339.197917,71.2291678 339.21875,71 L311.25,71 C310.749998,71 310.31771,71.9010327 309.953125,73.703125 C309.58854,75.5052173 309.40625,76.9479113 309.40625,78.03125 C309.40625,79.1145887 309.656248,81.0572777 310.15625,83.859375 C310.656252,86.6614723 310.90625,88.8489505 310.90625,90.421875 C310.90625,91.9947995 310.291673,92.78125 309.0625,92.78125 C307.72916,92.78125 307.0625,91.9687581 307.0625,90.34375 C307.0625,88.7187419 307.343747,86.4635561 307.90625,83.578125 C308.468753,80.6926939 308.75,78.5208406 308.75,77.0625 L308.71875,31.90625 C308.71875,30.6354103 308.302087,29.5937541 307.46875,28.78125 L308.125,28.125 C308.979171,28.9583375 310.020827,29.375 311.25,29.375 L322.4375,29.375 C323.70834,29.375 324.749996,28.9583375 325.5625,28.125 L326.21875,28.78125 C325.385413,29.5937541 324.96875,30.6354103 324.96875,31.90625 L324.96875,57.6875 C324.96875,58.9375062 324.562504,59.9687459 323.75,60.78125 L324.40625,61.4375 C325.468755,60.3749947 327.791649,59.84375 331.375,59.84375 L346.1875,60.59375 C349.750018,60.59375 352.062495,60.0625053 353.125,59 L353.78125,59.625 C352.947913,60.4375041 352.53125,61.4791603 352.53125,62.75 Z M341.125,84.875 C341.125,85.7291709 340.770837,86.15625 340.0625,86.15625 C339.354163,86.15625 339,85.6458384 339,84.625 C339,83.7291622 339.171873,82.6302148 339.515625,81.328125 C339.859377,80.0260352 340.041667,79.3229172 340.0625,79.21875 C340.104167,79.4270844 340.208332,79.8541634 340.375,80.5 C340.541668,81.1458366 340.666666,81.6458316 340.75,82 C341.000001,83.0625053 341.125,84.0208291 341.125,84.875 Z M358.15625,73 L358.25,77.96875 C358.25,78.968755 358.093752,79.7239558 357.78125,80.234375 C357.468748,80.7447942 357.093752,81 356.65625,81 C355.781246,81 355.34375,80.1562584 355.34375,78.46875 C355.34375,76.7812416 355.552081,74.9114686 355.96875,72.859375 C356.385419,70.8072814 356.749998,69.3958372 357.0625,68.625 L372.0625,31.71875 C372.270834,31.1770806 372.375,30.6458359 372.375,30.125 C372.375,29.6041641 372.197918,29.0937525 371.84375,28.59375 L372.71875,28.03125 C373.32292,28.9270878 374.26041,29.375 375.53125,29.375 L389.90625,29.375 C391.156256,29.375 392.08333,28.9270878 392.6875,28.03125 L393.59375,28.59375 C393.239582,29.0937525 393.0625,29.5729144 393.0625,30.03125 C393.0625,30.4895856 393.187499,31.0416634 393.4375,31.6875 L408.875,68.65625 C409.354169,69.8229225 410.093745,70.73958 411.09375,71.40625 L410.71875,72 C409.697912,71.33333 408.562506,71 407.3125,71 L401.1875,71 C401.229167,71.4583356 401.25,71.7812491 401.25,71.96875 C401.25,72.6562534 400.968753,73 400.40625,73 C400.156249,73 399.932293,72.9010427 399.734375,72.703125 C399.536457,72.5052073 399.4375,72.2239602 399.4375,71.859375 C399.4375,71.4947898 399.458333,71.2083344 399.5,71 L395.71875,71 C394.802079,71 394.208335,71.499995 393.9375,72.5 C393.604165,73.7291728 393.4375,75.140617 393.4375,76.734375 C393.4375,78.328133 393.541666,79.7812434 393.75,81.09375 C393.958334,82.4062566 394.0625,83.3072892 394.0625,83.796875 C394.0625,84.2864608 393.94271,84.6822902 393.703125,84.984375 C393.46354,85.2864598 393.166668,85.4375 392.8125,85.4375 C392.458332,85.4375 392.156251,85.2916681 391.90625,85 C391.656249,84.7083319 391.53125,84.3020859 391.53125,83.78125 C391.53125,83.2604141 391.661457,82.2500075 391.921875,80.75 C392.182293,79.2499925 392.3125,78.1250037 392.3125,77.375 L392.3125,68.59375 C392.104166,68.0312472 392,67.5104191 392,67.03125 C392,66.5520809 392.187498,66.0416694 392.5625,65.5 L391.75,64.90625 C391.124997,65.8020878 390.187506,66.25 388.9375,66.25 L376.09375,66.25 C374.843744,66.25 373.906253,65.8125044 373.28125,64.9375 L372.46875,65.5 C372.864585,66.0625028 373.0625,66.5833309 373.0625,67.0625 C373.0625,67.5416691 372.989584,68.0520806 372.84375,68.59375 L372.84375,68.625 C372.656249,69.3333369 372.5625,69.8749981 372.5625,70.25 C372.5625,70.6250019 372.770831,71.1145803 373.1875,71.71875 L372.375,72.3125 C371.749997,71.4374956 370.812506,71 369.5625,71 L358.25,71 C358.1875,71.3958353 358.15625,72.0624953 358.15625,73 Z M379.3125,57.59375 L385.28125,57.59375 C386.531256,57.59375 387.656245,57.92708 388.65625,58.59375 L389.0625,58 C388.083328,57.33333 387.375002,56.4062559 386.9375,55.21875 L382.96875,45.0625 C382.510414,43.8749941 382.270833,42.6666728 382.25,41.4375 L381.84375,41.4375 C381.802083,42.8125069 381.593752,44.0208281 381.21875,45.0625 L377.625,55.1875 C377.187498,56.3958394 376.489588,57.33333 375.53125,58 L375.9375,58.625 C376.916672,57.9374966 378.04166,57.59375 379.3125,57.59375 Z M399.59375,81.34375 C399.59375,79.9062428 399.864581,78.1041775 400.40625,75.9375 C401.01042,78.4375125 401.3125,80.0624963 401.3125,80.8125 C401.3125,81.9166722 401.026045,82.46875 400.453125,82.46875 C399.880205,82.46875 399.59375,82.0937537 399.59375,81.34375 Z" fill="#F56565"></path>
                    <path d="M21.5,77.71875 L22.15625,73.28125 C22.15625,70.2187347 18.8854494,68.6875 12.34375,68.6875 C11.2187444,68.6875 10.4375022,68.9479141 10,69.46875 C9.56249781,69.9895859 9.34375,70.8749938 9.34375,72.125 C9.34375,73.3750062 9.53124812,75.1093639 9.90625,77.328125 C10.2812519,79.5468861 10.46875,81.2447858 10.46875,82.421875 C10.46875,83.5989642 10.0000047,84.1875 9.0625,84.1875 C8.12499531,84.1875 7.65625,83.5677145 7.65625,82.328125 C7.65625,81.0885355 7.80208187,79.2187625 8.09375,76.71875 C8.38541813,74.2187375 8.53125,72.5208378 8.53125,71.625 C8.53125,69.4999894 8.14583719,68.4375 7.375,68.4375 C6.8749975,68.4375 6.625,69.0312441 6.625,70.21875 L7.375,75.40625 C7.375,76.6354228 6.93229609,77.25 6.046875,77.25 C5.16145391,77.25 4.71875,76.6250062 4.71875,75.375 L5.4375,69.625 L5.40625,64.4375 L5.40625,30.90625 C5.40625,29.6145769 5.00000406,28.5729206 4.1875,27.78125 L4.8125,27.125 C5.66667094,27.9583375 6.70832719,28.375 7.9375,28.375 L33.75,28.375 C46.2083956,28.375 53.937485,32.4270428 56.9375,40.53125 C57.7708375,42.8229281 58.1875,45.265612 58.1875,47.859375 C58.1875,50.453138 58.0260433,52.6822823 57.703125,54.546875 C57.3802067,56.4114677 56.9687525,58.046868 56.46875,59.453125 C55.9687475,60.859382 55.2656295,62.1041612 54.359375,63.1875 C53.4531205,64.2708387 52.5468795,65.182288 51.640625,65.921875 C50.7343705,66.661462 49.5833403,67.2916641 48.1875,67.8125 C46.7916597,68.3333359 45.5000059,68.7343736 44.3125,69.015625 C43.1249941,69.2968764 41.6354256,69.5104159 39.84375,69.65625 C37.0312359,69.8854178 33.7291856,70 29.9375,70 L25.40625,70 C23.6562413,70 22.78125,71.2499875 22.78125,73.75 L23.28125,77.75 C23.28125,78.5416706 23.0104194,78.9375 22.46875,78.9375 C21.8229134,78.9375 21.5,78.5312541 21.5,77.71875 Z M39.40625,56.21875 C40.0520866,55.3854125 40.5520816,54.3072983 40.90625,52.984375 C41.2604184,51.6614517 41.4375,50.0677177 41.4375,48.203125 C41.4375,46.3385323 41.1250031,44.7812562 40.5,43.53125 C39.8749969,42.2812438 39.0416719,41.3645863 38,40.78125 C36.9583281,40.1979137 35.8020897,39.7656264 34.53125,39.484375 C33.2604103,39.2031236 31.9270903,39.0468752 30.53125,39.015625 C29.1354097,38.9843748 27.8333394,38.9583334 26.625,38.9375 C23.6666519,38.8958331 21.7708375,38.4583375 20.9375,37.625 L20.3125,38.25 C21.1041706,39.0208372 21.5,40.0624934 21.5,41.375 L21.5,48.5625 C21.5,53.3541906 21.5208331,56.9374881 21.5625,59.3125 L28.65625,59.3125 C32.2187678,59.3125 34.7447842,59.0000031 36.234375,58.375 C37.7239658,57.7499969 38.7812469,57.0312541 39.40625,56.21875 Z M23.5,88.78125 C23.5,89.7395881 23.1510452,90.21875 22.453125,90.21875 C21.7552048,90.21875 21.40625,89.8281289 21.40625,89.046875 C21.40625,88.2656211 21.4531245,87.5833363 21.546875,87 C21.6406255,86.4166637 21.8020822,85.6718795 22.03125,84.765625 C22.2604178,83.8593705 22.3958331,83.2916678 22.4375,83.0625 C22.5000003,83.3333347 22.6145825,83.7864552 22.78125,84.421875 C22.9479175,85.0572948 23.0729162,85.5520816 23.15625,85.90625 C23.3854178,86.8854216 23.5,87.8437453 23.5,88.78125 Z M116.75,80.25 L117.4375,73.78125 C117.4375,71.1562369 116.369802,69.1510486 114.234375,67.765625 C112.098948,66.3802014 109.854178,65.7656242 107.5,65.921875 C105.145822,66.0781258 103.500005,66.8749928 102.5625,68.3125 C102.083331,69.0000034 101.84375,69.8124953 101.84375,70.75 L101.6875,79.125 C101.6875,80.2708391 101.864582,81.973947 102.21875,84.234375 C102.572918,86.494803 102.75,88.1979109 102.75,89.34375 C102.75,91.3645934 102.177089,92.375 101.03125,92.375 C99.8854109,92.375 99.3125,91.3958431 99.3125,89.4375 C99.3125,88.1458269 99.4999981,86.2916788 99.875,83.875 C100.250002,81.4583212 100.463541,79.6250062 100.515625,78.375 C100.567709,77.1249938 100.59375,74.4583538 100.59375,70.375 C100.59375,69.2916613 100.26042,68.0416738 99.59375,66.625 C98.92708,65.2083262 97.8750072,63.2604291 96.4375,60.78125 C94.9999928,58.3020709 93.8229213,56.1145928 92.90625,54.21875 L91.96875,53.6875 C91.4687475,54.6041713 90.5833397,55.0625 89.3125,55.0625 L86.6875,55.15625 C84.8958244,55.15625 83.5520878,54.7187544 82.65625,53.84375 L82,54.46875 C82.0625003,55.2395872 82.09375,56.8854041 82.09375,59.40625 L82.0625,67.0625 C82.0625,69.3541781 82.1041663,71.0416613 82.1875,72.125 L82.78125,76.71875 C82.78125,77.5729209 82.4895863,78 81.90625,78 C81.3229137,78 81.03125,77.6041706 81.03125,76.8125 L81.53125,72.9375 C81.53125,71.9999953 81.2552111,71.2552111 80.703125,70.703125 C80.1510389,70.1510389 79.4322961,69.875 78.546875,69.875 C77.6614539,69.875 76.8802117,70.2656211 76.203125,71.046875 C75.5260383,71.8281289 75.1875,72.8437438 75.1875,74.09375 C75.1875,75.3437562 75.4166644,77.0364477 75.875,79.171875 C76.3333356,81.3073023 76.5625,82.8437453 76.5625,83.78125 C76.5625,85.7395931 75.8645903,86.71875 74.46875,86.71875 C73.0729097,86.71875 72.375,85.7604262 72.375,83.84375 C72.375,82.9479122 72.578123,81.3854278 72.984375,79.15625 C73.390627,76.9270722 73.59375,75.1562566 73.59375,73.84375 C73.59375,72.5312434 73.2916697,71.4531292 72.6875,70.609375 C72.0833303,69.7656208 71.3958372,69.34375 70.625,69.34375 C69.8541628,69.34375 69.1979194,69.6093723 68.65625,70.140625 C68.1145806,70.6718777 67.84375,71.3333294 67.84375,72.125 L68.6875,79.53125 C68.6875,80.8020897 68.2187547,81.4375 67.28125,81.4375 C66.3437453,81.4375 65.875,80.7916731 65.875,79.5 C65.875,78.7499963 66.0729147,77.4427177 66.46875,75.578125 C66.8645853,73.7135323 67.0520834,72.2604219 67.03125,71.21875 C67.0104166,70.1770781 67,56.6980462 67,30.78125 C67,29.4895769 66.6041706,28.4583372 65.8125,27.6875 L66.4375,27.0625 C67.2500041,27.8541706 68.2812438,28.25 69.53125,28.25 L97.53125,28.25 C101.906272,28.25 104.848951,28.380207 106.359375,28.640625 C107.869799,28.901043 109.192703,29.1770819 110.328125,29.46875 C111.463547,29.7604181 112.421871,30.1197895 113.203125,30.546875 C113.984379,30.9739605 114.776038,31.5052052 115.578125,32.140625 C116.380212,32.7760448 117.020831,33.4999959 117.5,34.3125 C118.604172,36.1666759 119.15625,38.1354062 119.15625,40.21875 C119.15625,42.3020937 118.994793,44.0052017 118.671875,45.328125 C118.348957,46.6510483 117.812504,47.8958275 117.0625,49.0625 C115.437492,51.5833459 112.583354,52.84375 108.5,52.84375 L108.25,53.5625 C109.562507,54.0833359 110.437498,54.8020787 110.875,55.71875 C112.708343,59.71877 114.062496,62.255203 114.9375,63.328125 C115.812504,64.401047 116.624996,65.2604134 117.375,65.90625 C118.125004,66.5520866 119.19791,67.20833 120.59375,67.875 C121.98959,68.54167 122.833332,68.9739573 123.125,69.171875 C123.416668,69.3697927 123.5625,69.5312494 123.5625,69.65625 C123.5625,71.7395937 123.843747,74.4166503 124.40625,77.6875 C124.968753,80.9583497 125.25,83.0624953 125.25,84 C125.25,84.9375047 125.213542,85.6145813 125.140625,86.03125 C125.067708,86.4479187 124.906251,86.859373 124.65625,87.265625 C124.406249,87.671877 124.041669,87.875 123.5625,87.875 C123.083331,87.875 122.72396,87.5312534 122.484375,86.84375 C122.24479,86.1562466 122.125,85.312505 122.125,84.3125 C122.125,83.312495 122.260415,81.5260545 122.53125,78.953125 C122.802085,76.3801955 122.9375,74.4375066 122.9375,73.125 C122.9375,70.5208203 122.093758,69.21875 120.40625,69.21875 C119.572913,69.21875 118.953127,69.3645819 118.546875,69.65625 C118.140623,69.9479181 117.9375,70.5468705 117.9375,71.453125 C117.9375,72.3593795 118.124998,73.8020734 118.5,75.78125 C118.875002,77.7604266 119.0625,79.2552033 119.0625,80.265625 C119.0625,81.2760467 118.677087,81.78125 117.90625,81.78125 C117.135413,81.78125 116.75,81.2708384 116.75,80.25 Z M95.9375,38.625 L88.5625,38.84375 C85.5416516,38.84375 83.5729213,38.3958378 82.65625,37.5 L82,38.09375 C82.8333375,38.9062541 83.25,39.9479103 83.25,41.21875 L83.25,43.3125 C83.25,44.5625062 82.8333375,45.6041625 82,46.4375 L82.65625,47.0625 C83.5520878,46.1458287 85.4062359,45.6875 88.21875,45.6875 L96.125,45.96875 C98.2291772,45.96875 99.8593692,45.6927111 101.015625,45.140625 C102.171881,44.5885389 102.75,43.5729241 102.75,42.09375 C102.75,41.1562453 102.427087,40.4218777 101.78125,39.890625 C101.135413,39.3593723 100.354171,39.0156258 99.4375,38.859375 C98.5208287,38.7031242 97.3541738,38.625 95.9375,38.625 Z M128.59375,72 L128.6875,76.96875 C128.6875,77.968755 128.531252,78.7239558 128.21875,79.234375 C127.906248,79.7447942 127.531252,80 127.09375,80 C126.218746,80 125.78125,79.1562584 125.78125,77.46875 C125.78125,75.7812416 125.989581,73.9114686 126.40625,71.859375 C126.822919,69.8072814 127.187498,68.3958372 127.5,67.625 L142.5,30.71875 C142.708334,30.1770806 142.8125,29.6458359 142.8125,29.125 C142.8125,28.6041641 142.635418,28.0937525 142.28125,27.59375 L143.15625,27.03125 C143.76042,27.9270878 144.69791,28.375 145.96875,28.375 L160.34375,28.375 C161.593756,28.375 162.52083,27.9270878 163.125,27.03125 L164.03125,27.59375 C163.677082,28.0937525 163.5,28.5729144 163.5,29.03125 C163.5,29.4895856 163.624999,30.0416634 163.875,30.6875 L179.3125,67.65625 C179.791669,68.8229225 180.531245,69.73958 181.53125,70.40625 L181.15625,71 C180.135412,70.33333 179.000006,70 177.75,70 L171.625,70 C171.666667,70.4583356 171.6875,70.7812491 171.6875,70.96875 C171.6875,71.6562534 171.406253,72 170.84375,72 C170.593749,72 170.369793,71.9010427 170.171875,71.703125 C169.973957,71.5052073 169.875,71.2239602 169.875,70.859375 C169.875,70.4947898 169.895833,70.2083344 169.9375,70 L166.15625,70 C165.239579,70 164.645835,70.499995 164.375,71.5 C164.041665,72.7291728 163.875,74.140617 163.875,75.734375 C163.875,77.328133 163.979166,78.7812434 164.1875,80.09375 C164.395834,81.4062566 164.5,82.3072892 164.5,82.796875 C164.5,83.2864608 164.38021,83.6822902 164.140625,83.984375 C163.90104,84.2864598 163.604168,84.4375 163.25,84.4375 C162.895832,84.4375 162.593751,84.2916681 162.34375,84 C162.093749,83.7083319 161.96875,83.3020859 161.96875,82.78125 C161.96875,82.2604141 162.098957,81.2500075 162.359375,79.75 C162.619793,78.2499925 162.75,77.1250037 162.75,76.375 L162.75,67.59375 C162.541666,67.0312472 162.4375,66.5104191 162.4375,66.03125 C162.4375,65.5520809 162.624998,65.0416694 163,64.5 L162.1875,63.90625 C161.562497,64.8020878 160.625006,65.25 159.375,65.25 L146.53125,65.25 C145.281244,65.25 144.343753,64.8125044 143.71875,63.9375 L142.90625,64.5 C143.302085,65.0625028 143.5,65.5833309 143.5,66.0625 C143.5,66.5416691 143.427084,67.0520806 143.28125,67.59375 L143.28125,67.625 C143.093749,68.3333369 143,68.8749981 143,69.25 C143,69.6250019 143.208331,70.1145803 143.625,70.71875 L142.8125,71.3125 C142.187497,70.4374956 141.250006,70 140,70 L128.6875,70 C128.625,70.3958353 128.59375,71.0624953 128.59375,72 Z M149.75,56.59375 L155.71875,56.59375 C156.968756,56.59375 158.093745,56.92708 159.09375,57.59375 L159.5,57 C158.520828,56.33333 157.812502,55.4062559 157.375,54.21875 L153.40625,44.0625 C152.947914,42.8749941 152.708333,41.6666728 152.6875,40.4375 L152.28125,40.4375 C152.239583,41.8125069 152.031252,43.0208281 151.65625,44.0625 L148.0625,54.1875 C147.624998,55.3958394 146.927088,56.33333 145.96875,57 L146.375,57.625 C147.354172,56.9374966 148.47916,56.59375 149.75,56.59375 Z M170.03125,80.34375 C170.03125,78.9062428 170.302081,77.1041775 170.84375,74.9375 C171.44792,77.4375125 171.75,79.0624963 171.75,79.8125 C171.75,80.9166722 171.463545,81.46875 170.890625,81.46875 C170.317705,81.46875 170.03125,81.0937537 170.03125,80.34375 Z M201.09375,47.9375 C201.09375,55.5208712 204.76038,59.3125 212.09375,59.3125 C219.42712,59.3125 223.09375,55.5208712 223.09375,47.9375 C223.09375,44.3124819 222.114593,41.5989673 220.15625,39.796875 C218.197907,37.9947827 215.52085,37.09375 212.125,37.09375 C208.72915,37.09375 206.041677,37.9947827 204.0625,39.796875 C202.083323,41.5989673 201.09375,44.3124819 201.09375,47.9375 Z M229.59375,88.125 L230.0625,80.9375 C230.0625,77.4583159 229.125009,75.0729231 227.25,73.78125 L222.6875,70.6875 C221.770829,70.0416634 221.3125,69.3958366 221.3125,68.75 C221.3125,68.5208322 221.333333,68.3333341 221.375,68.1875 L220.21875,67.90625 C220.093749,68.4895863 219.859377,68.9010405 219.515625,69.140625 C219.171873,69.3802095 218.286465,69.6041656 216.859375,69.8125 C215.432285,70.0208344 213.812509,70.125 212,70.125 C210.187491,70.125 208.437508,70.0520841 206.75,69.90625 C205.062492,69.7604159 203.239593,69.4791687 201.28125,69.0625 C199.322907,68.6458313 197.536466,68.10417 195.921875,67.4375 C194.307284,66.77083 192.729174,65.8645891 191.1875,64.71875 C189.645826,63.5729109 188.343755,62.2500075 187.28125,60.75 C184.947905,57.4791503 183.78125,53.2604425 183.78125,48.09375 C183.78125,39.1145384 187.562462,32.8750175 195.125,29.375 C199.625023,27.2916563 205.281216,26.25 212.09375,26.25 C226.656323,26.25 235.60415,30.749955 238.9375,39.75 C239.854171,42.2083456 240.3125,44.9895678 240.3125,48.09375 C240.3125,53.8437787 238.822932,58.3333172 235.84375,61.5625 C234.947912,62.5208381 233.958339,63.0520828 232.875,63.15625 L232.90625,63.96875 C233.031251,63.9479166 233.401039,63.9375 234.015625,63.9375 C234.630211,63.9375 235.364579,64.2291637 236.21875,64.8125 L240.21875,67.5 C241.135421,68.1250031 242.124995,68.4479166 243.1875,68.46875 L243.53125,68.4375 L243.59375,69.21875 C242.427077,69.3020838 241.364588,69.7604125 240.40625,70.59375 L234.625,75.53125 C234.625,76.1770866 234.749999,77.1354103 235,78.40625 C235.250001,79.6770897 235.375,80.6249969 235.375,81.25 C235.375,82.5208397 234.92188,83.15625 234.015625,83.15625 C233.10937,83.15625 232.65625,82.5312562 232.65625,81.28125 C232.65625,80.6979137 232.786457,79.8333391 233.046875,78.6875 C233.307293,77.5416609 233.4375,76.5364627 233.4375,75.671875 C233.4375,74.8072873 233.177086,74.375 232.65625,74.375 C232.260415,74.375 231.973959,74.671872 231.796875,75.265625 C231.619791,75.859378 231.53125,76.6041622 231.53125,77.5 C231.53125,78.3958378 231.677082,80.0989458 231.96875,82.609375 C232.260418,85.1198042 232.40625,86.9999938 232.40625,88.25 C232.40625,89.5000062 231.968754,90.125 231.09375,90.125 C230.093745,90.125 229.59375,89.45834 229.59375,88.125 Z M235.09375,96.09375 C235.09375,97.0520881 234.739587,97.53125 234.03125,97.53125 C233.322913,97.53125 232.96875,97.0208384 232.96875,96 C232.96875,94.9791616 233.130207,93.8541728 233.453125,92.625 C233.776043,91.3958272 233.96875,90.6458347 234.03125,90.375 C234.09375,90.6666681 234.229166,91.2499956 234.4375,92.125 C234.875002,93.8125084 235.09375,95.1354119 235.09375,96.09375 Z M298.53125,34.6875 L298.8125,50.65625 C298.8125,56.2187778 298.125007,60.2916538 296.75,62.875 C295.458327,65.3333456 293.614595,67.1770772 291.21875,68.40625 C288.48957,69.8229238 284.864606,70.7395813 280.34375,71.15625 L280.34375,77 L280.65625,80.21875 C280.65625,80.9270869 280.458335,81.28125 280.0625,81.28125 C279.666665,81.28125 279.46875,80.5937569 279.46875,79.21875 L279.65625,74.125 C279.65625,71.8749887 278.95834,70.75 277.5625,70.75 C276.479161,70.75 275.9375,71.6354078 275.9375,73.40625 L276.09375,76.125 C276.09375,76.7500031 276.223957,77.6614523 276.484375,78.859375 C276.744793,80.0572977 276.875,80.9062475 276.875,81.40625 C276.875,81.9062525 276.770834,82.322915 276.5625,82.65625 C276.354166,82.989585 276.052085,83.15625 275.65625,83.15625 C275.260415,83.15625 274.963543,82.9843767 274.765625,82.640625 C274.567707,82.2968733 274.46875,81.8854191 274.46875,81.40625 C274.46875,80.9270809 274.609374,80.1406305 274.890625,79.046875 C275.171876,77.9531195 275.3125,77.2500016 275.3125,76.9375 L275.3125,75.984375 C275.3125,75.6614567 275.302083,75.333335 275.28125,75 C275.260417,74.666665 275.208334,74.2500025 275.125,73.75 C274.958332,72.7083281 274.458337,72.1875 273.625,72.1875 C272.083326,72.1875 271.3125,73.7083181 271.3125,76.75 L271.3125,78.1875 C271.3125,78.9583372 271.499998,80.0833259 271.875,81.5625 C272.250002,83.0416741 272.4375,84.1041634 272.4375,84.75 C272.4375,86.3541747 271.916672,87.15625 270.875,87.15625 C270.354164,87.15625 269.94271,86.9375022 269.640625,86.5 C269.33854,86.0624978 269.1875,85.5000034 269.1875,84.8125 C269.1875,84.1249966 269.359373,82.9583416 269.703125,81.3125 C270.046877,79.6666584 270.21875,78.4166709 270.21875,77.5625 L270.21875,71.34375 C264.302054,71.0729153 259.864598,70.2083406 256.90625,68.75 C251.739557,66.2499875 249.083334,61.500035 248.9375,54.5 C248.895833,52.5624903 248.875,49.6771025 248.875,45.84375 L248.9375,31.40625 C248.9375,30.1770772 248.531254,29.1458375 247.71875,28.3125 L248.375,27.6875 C249.145837,28.4791706 250.177077,28.875 251.46875,28.875 L262.53125,28.875 C263.80209,28.875 264.833329,28.4791706 265.625,27.6875 L266.28125,28.3125 C265.489579,29.1250041 265.09375,30.1562438 265.09375,31.40625 L265.15625,47.46875 C265.15625,50.5729322 265.239582,52.5416625 265.40625,53.375 C265.572918,54.2083375 265.755207,54.9739548 265.953125,55.671875 C266.151043,56.3697952 266.390624,56.9270813 266.671875,57.34375 C266.953126,57.7604187 267.312498,58.2031227 267.75,58.671875 C268.187502,59.1406273 268.687497,59.4999988 269.25,59.75 C270.562507,60.3333363 271.848952,60.625 273.109375,60.625 C274.369798,60.625 275.348955,60.5677089 276.046875,60.453125 C276.744795,60.3385411 277.359372,60.151043 277.890625,59.890625 C278.421878,59.630207 278.90104,59.3489598 279.328125,59.046875 C279.75521,58.7447902 280.11979,58.3593773 280.421875,57.890625 C280.72396,57.4218727 280.989582,56.9739605 281.21875,56.546875 C281.447918,56.1197895 281.630208,55.5833366 281.765625,54.9375 C281.901042,54.2916634 282.010416,53.7239608 282.09375,53.234375 C282.177084,52.7447892 282.239583,52.1250037 282.28125,51.375 C282.34375,50.2291609 282.375,48.9270906 282.375,47.46875 L282.4375,31.40625 C282.4375,30.1354103 282.052087,29.1041706 281.28125,28.3125 L281.875,27.6875 C282.666671,28.4791706 283.708327,28.875 285,28.875 L296.0625,28.875 C297.375007,28.875 298.416663,28.4791706 299.1875,27.6875 L299.8125,28.3125 C298.958329,29.1875044 298.53125,31.3124831 298.53125,34.6875 Z M281.09375,87.34375 C281.09375,88.3229216 280.750003,88.8125 280.0625,88.8125 C279.374997,88.8125 279.03125,88.3020884 279.03125,87.28125 C279.03125,86.281245 279.18229,85.4322952 279.484375,84.734375 C279.78646,84.0364548 279.96875,83.6875 280.03125,83.6875 C280.09375,83.6875 280.208332,83.8749981 280.375,84.25 C280.854169,85.3333387 281.09375,86.3645784 281.09375,87.34375 Z M352.53125,61.75 L352.40625,65.8125 C352.40625,68.0833447 352.864579,69.6770787 353.78125,70.59375 L353.125,71.21875 C352.333329,70.4062459 351.291673,70 350,70 L340.90625,70 C340.927083,70.2916681 340.9375,70.6770809 340.9375,71.15625 C340.9375,72.3229225 340.645836,72.90625 340.0625,72.90625 C339.479164,72.90625 339.1875,72.2500066 339.1875,70.9375 C339.1875,70.5416647 339.197917,70.2291678 339.21875,70 L311.25,70 C310.749998,70 310.31771,70.9010327 309.953125,72.703125 C309.58854,74.5052173 309.40625,75.9479113 309.40625,77.03125 C309.40625,78.1145887 309.656248,80.0572777 310.15625,82.859375 C310.656252,85.6614723 310.90625,87.8489505 310.90625,89.421875 C310.90625,90.9947995 310.291673,91.78125 309.0625,91.78125 C307.72916,91.78125 307.0625,90.9687581 307.0625,89.34375 C307.0625,87.7187419 307.343747,85.4635561 307.90625,82.578125 C308.468753,79.6926939 308.75,77.5208406 308.75,76.0625 L308.71875,30.90625 C308.71875,29.6354103 308.302087,28.5937541 307.46875,27.78125 L308.125,27.125 C308.979171,27.9583375 310.020827,28.375 311.25,28.375 L322.4375,28.375 C323.70834,28.375 324.749996,27.9583375 325.5625,27.125 L326.21875,27.78125 C325.385413,28.5937541 324.96875,29.6354103 324.96875,30.90625 L324.96875,56.6875 C324.96875,57.9375062 324.562504,58.9687459 323.75,59.78125 L324.40625,60.4375 C325.468755,59.3749947 327.791649,58.84375 331.375,58.84375 L346.1875,59.59375 C349.750018,59.59375 352.062495,59.0625053 353.125,58 L353.78125,58.625 C352.947913,59.4375041 352.53125,60.4791603 352.53125,61.75 Z M341.125,83.875 C341.125,84.7291709 340.770837,85.15625 340.0625,85.15625 C339.354163,85.15625 339,84.6458384 339,83.625 C339,82.7291622 339.171873,81.6302148 339.515625,80.328125 C339.859377,79.0260352 340.041667,78.3229172 340.0625,78.21875 C340.104167,78.4270844 340.208332,78.8541634 340.375,79.5 C340.541668,80.1458366 340.666666,80.6458316 340.75,81 C341.000001,82.0625053 341.125,83.0208291 341.125,83.875 Z M358.15625,72 L358.25,76.96875 C358.25,77.968755 358.093752,78.7239558 357.78125,79.234375 C357.468748,79.7447942 357.093752,80 356.65625,80 C355.781246,80 355.34375,79.1562584 355.34375,77.46875 C355.34375,75.7812416 355.552081,73.9114686 355.96875,71.859375 C356.385419,69.8072814 356.749998,68.3958372 357.0625,67.625 L372.0625,30.71875 C372.270834,30.1770806 372.375,29.6458359 372.375,29.125 C372.375,28.6041641 372.197918,28.0937525 371.84375,27.59375 L372.71875,27.03125 C373.32292,27.9270878 374.26041,28.375 375.53125,28.375 L389.90625,28.375 C391.156256,28.375 392.08333,27.9270878 392.6875,27.03125 L393.59375,27.59375 C393.239582,28.0937525 393.0625,28.5729144 393.0625,29.03125 C393.0625,29.4895856 393.187499,30.0416634 393.4375,30.6875 L408.875,67.65625 C409.354169,68.8229225 410.093745,69.73958 411.09375,70.40625 L410.71875,71 C409.697912,70.33333 408.562506,70 407.3125,70 L401.1875,70 C401.229167,70.4583356 401.25,70.7812491 401.25,70.96875 C401.25,71.6562534 400.968753,72 400.40625,72 C400.156249,72 399.932293,71.9010427 399.734375,71.703125 C399.536457,71.5052073 399.4375,71.2239602 399.4375,70.859375 C399.4375,70.4947898 399.458333,70.2083344 399.5,70 L395.71875,70 C394.802079,70 394.208335,70.499995 393.9375,71.5 C393.604165,72.7291728 393.4375,74.140617 393.4375,75.734375 C393.4375,77.328133 393.541666,78.7812434 393.75,80.09375 C393.958334,81.4062566 394.0625,82.3072892 394.0625,82.796875 C394.0625,83.2864608 393.94271,83.6822902 393.703125,83.984375 C393.46354,84.2864598 393.166668,84.4375 392.8125,84.4375 C392.458332,84.4375 392.156251,84.2916681 391.90625,84 C391.656249,83.7083319 391.53125,83.3020859 391.53125,82.78125 C391.53125,82.2604141 391.661457,81.2500075 391.921875,79.75 C392.182293,78.2499925 392.3125,77.1250037 392.3125,76.375 L392.3125,67.59375 C392.104166,67.0312472 392,66.5104191 392,66.03125 C392,65.5520809 392.187498,65.0416694 392.5625,64.5 L391.75,63.90625 C391.124997,64.8020878 390.187506,65.25 388.9375,65.25 L376.09375,65.25 C374.843744,65.25 373.906253,64.8125044 373.28125,63.9375 L372.46875,64.5 C372.864585,65.0625028 373.0625,65.5833309 373.0625,66.0625 C373.0625,66.5416691 372.989584,67.0520806 372.84375,67.59375 L372.84375,67.625 C372.656249,68.3333369 372.5625,68.8749981 372.5625,69.25 C372.5625,69.6250019 372.770831,70.1145803 373.1875,70.71875 L372.375,71.3125 C371.749997,70.4374956 370.812506,70 369.5625,70 L358.25,70 C358.1875,70.3958353 358.15625,71.0624953 358.15625,72 Z M379.3125,56.59375 L385.28125,56.59375 C386.531256,56.59375 387.656245,56.92708 388.65625,57.59375 L389.0625,57 C388.083328,56.33333 387.375002,55.4062559 386.9375,54.21875 L382.96875,44.0625 C382.510414,42.8749941 382.270833,41.6666728 382.25,40.4375 L381.84375,40.4375 C381.802083,41.8125069 381.593752,43.0208281 381.21875,44.0625 L377.625,54.1875 C377.187498,55.3958394 376.489588,56.33333 375.53125,57 L375.9375,57.625 C376.916672,56.9374966 378.04166,56.59375 379.3125,56.59375 Z M399.59375,80.34375 C399.59375,78.9062428 399.864581,77.1041775 400.40625,74.9375 C401.01042,77.4375125 401.3125,79.0624963 401.3125,79.8125 C401.3125,80.9166722 401.026045,81.46875 400.453125,81.46875 C399.880205,81.46875 399.59375,81.0937537 399.59375,80.34375 Z" fill="#FF8E8E"></path>
                </g>
            </g>
        </g>
    </g>
</svg>